<?xml version="1.0" encoding="utf-8"?>
<!-- Generator: Adobe Illustrator 24.0.3, SVG Export Plug-In . SVG Version: 6.00 Build 0)  -->
<svg version="1.1" id="Layer_1" xmlns="http://www.w3.org/2000/svg" xmlns:xlink="http://www.w3.org/1999/xlink" x="0px" y="0px"
	 viewBox="0 0 34 34" style="enable-background:new 0 0 34 34;" xml:space="preserve">
<style type="text/css">
	.st0{fill-rule:evenodd;clip-rule:evenodd;fill:#FFFFFF;}
</style>
<g>
	<path class="st0" d="M12.3,9.8c-0.1,0.3-0.1,0.6-0.1,0.9c0,4.1,0,8.1,0,12.2c1.1-1.3,2.1-2.5,3.2-3.8c0.3-0.3,0.5-0.7,0.9-0.7
		c1-0.1,2.1,0,3.1,0c0.2,0,0.5-0.1,0.5-0.4c0.2-0.7,0.3-1.4,0.5-2.2c0.1-0.3,0.1-0.8-0.4-0.8c-1.2-0.1-2.5,0.1-3.7-0.1
		c-0.7-0.1-0.7-0.9-0.6-1.4c0-0.4,0.4-0.7,0.8-0.6c1.3,0,2.5,0,3.8,0c0.3,0,0.6,0,0.7-0.3c0.2-0.5,0.2-1,0.4-1.5
		c0.1-0.4,0.2-0.8,0.1-1.3c-0.2-0.3-0.6-0.3-0.9-0.3c-2.5,0-4.9,0-7.4,0C12.9,9.5,12.5,9.5,12.3,9.8L12.3,9.8z M11.4,7.4
		c0.2,0,0.4,0,0.6-0.1c3.4,0,6.8,0,10.1,0c0.6,0,1.2,0,1.6,0.6c0.4,0.7,0.2,1.5,0.1,2.2c-0.6,2.9-1.1,5.8-1.7,8.7
		c-0.1,0.5-0.2,1-0.6,1.3c-0.3,0.3-0.6,0.4-1,0.4c-1,0.1-2.1,0-3.1,0c-0.3,0-0.5,0.2-0.6,0.4c-1.5,1.7-3,3.4-4.4,5.1
		c-0.2,0.2-0.4,0.5-0.7,0.6c-0.4,0.2-1,0.1-1.3-0.3c-0.2-0.3-0.2-0.6-0.2-0.9c0-5,0-9.9,0-14.9c0-0.6,0-1.2,0-1.8
		C10.2,8,10.7,7.5,11.4,7.4L11.4,7.4z"/>
</g>
</svg>
