<?xml version="1.0" encoding="utf-8"?>
<!-- Generator: Adobe Illustrator 24.0.3, SVG Export Plug-In . SVG Version: 6.00 Build 0)  -->
<svg version="1.1" id="Layer_1" xmlns="http://www.w3.org/2000/svg" xmlns:xlink="http://www.w3.org/1999/xlink" x="0px" y="0px"
	 viewBox="0 0 34 34" style="enable-background:new 0 0 34 34;" xml:space="preserve">
<style type="text/css">
	.st0{fill-rule:evenodd;clip-rule:evenodd;fill:#FFFFFF;}
</style>
<g>
	<path class="st0" d="M25.2,15.3c0-0.2-0.1-0.2-0.3-0.2c-2.6,0-5.2,0-7.8,0c-0.2,0-0.2,0.1-0.2,0.3c0,1,0,1.9,0,2.9
		c0,0.3,0,0.3,0.3,0.3c1.4,0,2.8,0,4.2,0c0.2,0,0.3,0.1,0.2,0.3c-0.1,0.3-0.2,0.6-0.3,0.8c-0.3,0.7-0.8,1.2-1.4,1.6
		c-0.7,0.4-1.5,0.7-2.4,0.8c-1.8,0.2-3.4-0.4-4.6-1.8c-0.5-0.5-0.8-1.2-1.1-1.8c-0.3-1.1-0.4-2.3,0-3.4c0.3-0.9,0.8-1.6,1.5-2.2
		c1.9-1.8,4.9-1.8,6.8-0.2c0.1,0.1,0.2,0,0.3,0c0.7-0.7,1.5-1.5,2.2-2.2c0.1-0.1,0.1-0.2,0-0.3c-2.1-1.8-4.5-2.4-7.2-2
		c-1.9,0.3-3.6,1.2-4.9,2.6c-0.5,0.6-1,1.2-1.4,2c0.9,0.7,1.8,1.4,2.7,2.1c-0.9-0.7-1.8-1.4-2.7-2.1C9.1,12.9,9,13,9,13.1
		c-0.7,1.5-1,3.2-0.7,4.8c0.1,1,0.4,1.9,0.9,2.8c0.6,1.1,1.3,2.1,2.3,2.9c2.4,1.9,5.1,2.4,8,1.6c1.2-0.3,2.4-0.9,3.3-1.8
		c0.5-0.5,1-1,1.4-1.6C25.3,19.8,25.6,17.6,25.2,15.3z"/>
</g>
</svg>
