<?xml version="1.0" encoding="utf-8"?>
<!-- Generator: Adobe Illustrator 24.0.3, SVG Export Plug-In . SVG Version: 6.00 Build 0)  -->
<svg version="1.1" id="Layer_1" xmlns="http://www.w3.org/2000/svg" xmlns:xlink="http://www.w3.org/1999/xlink" x="0px" y="0px"
	 viewBox="0 0 34 34" style="enable-background:new 0 0 34 34;" xml:space="preserve">
<style type="text/css">
	.st0{fill:#FFFFFF;}
</style>
<g>
	<g>
		<g>
			<g>
				<path class="st0" d="M25.1,17.1v5.7c0,0.1-0.1,0.3-0.3,0.3h-3c-0.1,0-0.3-0.1-0.3-0.3v-5.3c0-1.4-0.5-2.4-1.8-2.4
					c-1,0-1.5,0.6-1.8,1.3C18,16.7,18,17,18,17.3v5.6c0,0.1-0.1,0.3-0.3,0.3h-3c-0.1,0-0.3-0.1-0.3-0.3c0-1.4,0-8.3,0-9.9
					c0-0.1,0.1-0.3,0.3-0.3h2.9c0.1,0,0.3,0.1,0.3,0.3v1.2l0,0l0,0l0,0c0.5-0.7,1.3-1.7,3.1-1.7C23.4,12.4,25.1,13.9,25.1,17.1
					L25.1,17.1z M9.4,23.1h3c0.1,0,0.3-0.1,0.3-0.3v-9.9c0-0.1-0.1-0.3-0.3-0.3h-3c-0.1,0-0.3,0.1-0.3,0.3v9.9
					C9.1,23,9.2,23.1,9.4,23.1z"/>
			</g>
		</g>
		<g>
			<circle class="st0" cx="10.8" cy="9.5" r="1.9"/>
		</g>
	</g>
</g>
</svg>
