<?xml version="1.0" encoding="utf-8"?>
<!-- Generator: Adobe Illustrator 24.0.3, SVG Export Plug-In . SVG Version: 6.00 Build 0)  -->
<svg version="1.1" id="Layer_1" xmlns="http://www.w3.org/2000/svg" xmlns:xlink="http://www.w3.org/1999/xlink" x="0px" y="0px"
	 viewBox="0 0 34 34" style="enable-background:new 0 0 34 34;" xml:space="preserve">
<style type="text/css">
	.st0{fill-rule:evenodd;clip-rule:evenodd;fill:#FFFFFF;}
</style>
<g>
	<g>
		<g id="WA_Logo">
			<g>
				<path class="st0" d="M23.7,9.7C22,8,19.8,7.1,17.4,7.1c-4.9,0-8.9,4-8.9,8.9c0,1.6,0.4,3.1,1.2,4.4L8.4,25l4.7-1.2
					c1.3,0.7,2.8,1.1,4.3,1.1l0,0l0,0c4.9,0,8.9-4,8.9-8.9C26.3,13.6,25.4,11.4,23.7,9.7z M17.4,23.4L17.4,23.4
					c-1.3,0-2.6-0.4-3.8-1l-0.3-0.2l-2.8,0.7l0.7-2.7L11,19.9c-0.6-1.2-1-2.5-1-3.9c0-4.1,3.3-7.4,7.4-7.4c2,0,3.8,0.8,5.2,2.2
					s2.2,3.3,2.2,5.2C24.8,20.1,21.5,23.4,17.4,23.4z M21.5,17.8c-0.2-0.1-1.3-0.6-1.5-0.7s-0.4-0.1-0.5,0.1s-0.6,0.7-0.7,0.9
					c-0.1,0.1-0.3,0.2-0.5,0.1c-0.3-0.2-1-0.4-1.8-1.2c-0.7-0.6-1.1-1.3-1.2-1.5c-0.1-0.2,0-0.3,0.1-0.5c0.1-0.1,0.2-0.3,0.3-0.4
					c0.1-0.1,0.1-0.2,0.2-0.4c0.1-0.1,0-0.3,0-0.4c-0.1-0.1-0.5-1.2-0.7-1.7c-0.2-0.4-0.4-0.4-0.5-0.4s-0.3,0-0.4,0
					c-0.1,0-0.4,0.1-0.6,0.3c-0.2,0.2-0.8,0.8-0.8,1.9s0.8,2.2,0.9,2.3s1.6,2.4,3.8,3.4c0.5,0.2,0.9,0.4,1.3,0.5
					c0.5,0.2,1,0.1,1.4,0.1c0.4-0.1,1.3-0.5,1.5-1.1c0.2-0.5,0.2-1,0.1-1.1C21.8,18,21.7,17.9,21.5,17.8z"/>
			</g>
		</g>
	</g>
</g>
</svg>
