<?xml version="1.0" encoding="utf-8"?>
<!-- Generator: Adobe Illustrator 24.0.3, SVG Export Plug-In . SVG Version: 6.00 Build 0)  -->
<svg version="1.1" id="Layer_1" xmlns="http://www.w3.org/2000/svg" xmlns:xlink="http://www.w3.org/1999/xlink" x="0px" y="0px"
	 viewBox="0 0 34 34" style="enable-background:new 0 0 34 34;" xml:space="preserve">
<style type="text/css">
	.st0{fill:#FFFFFF;}
</style>
<g>
	<g id="Page-1">
		<g id="GDW_SocialMediaIcons" transform="translate(-211.000000, -1439.000000)">
			<path id="Yelp_3_" class="st0" d="M222.7,1446.1c1.1-0.9,3.2-1.1,4.1-0.9c0.9,0.2,1.4,0.7,1.4,1.3l0.1,7.6c0,0.6-0.3,1.1-0.7,1.2
				s-0.9-0.3-1.3-0.8l-4-6.5C221.9,1447.3,221.3,1447.2,222.7,1446.1z M221.3,1460.4l4-1.4c0.6-0.2,1-0.8,1.1-1.2
				c0.1-0.5-0.3-1-0.9-1.3l-4.3-1.7c-0.5-0.3-1.2,0.3-1.4,1.1c0,0-0.1,3,0,3.6C220.1,1460.2,220.8,1460.7,221.3,1460.4z
				 M228.3,1461.2c0-0.6-0.3-1.1-0.7-1.1s-1,0.3-1.4,0.8l-2.8,3.3c-0.3,0.4-0.2,1.5,0.3,1.7l2.9,1c0.6,0.2,1.5-0.4,1.5-1
				L228.3,1461.2z M235.3,1460.4l-3.5-1c-0.6-0.2-1.2-0.2-1.4,0c-0.3,0.2-0.2,0.8,0.1,1.3l2.2,4.1c0.3,0.5,1.4,0.4,1.7-0.1
				c0,0,1.4-2,1.6-2.7C236.2,1461.2,235.8,1460.5,235.3,1460.4z M236.1,1454.7c-0.2-0.5-1.3-2-1.9-2.6c-0.6-0.5-1.3-0.4-1.6,0
				l-2.3,2.7c-0.3,0.4-0.5,1.2-0.3,1.6c0.3,0.4,0.9,0.7,1.5,0.5l3.9-0.7C236.3,1456.1,236.3,1455.2,236.1,1454.7z"/>
		</g>
	</g>
</g>
</svg>
