<svg xmlns="http://www.w3.org/2000/svg" width="329.244" height="371.508" viewBox="0 0 329.244 371.508">
  <g id="Group_1" data-name="Group 1" transform="translate(-1151.896 -4635.125)">
    <path id="Path_1" data-name="Path 1" d="M1382.454,4656.183a1.8,1.8,0,0,1,.449-.526,10.812,10.812,0,0,0,3.418-8.231,3.846,3.846,0,0,0-.683-2.309,3.536,3.536,0,0,0-3.077-1.036,6.921,6.921,0,0,0-6.125,6.25l-.16,1.629c-.006-.031-.01-.059-.017-.091-.067-.485-.13-1.027-.229-1.562a4.192,4.192,0,0,0-.843-1.946c.011-4.221,1.019-5.651,1.878-6.1a1.6,1.6,0,0,1,1.723.182,1.1,1.1,0,0,1,.235,1.21.8.8,0,0,1-.777.55.583.583,0,0,1-.562-.542.639.639,0,0,1,.385-.724.258.258,0,0,0,.157-.329.261.261,0,0,0-.333-.152,1.147,1.147,0,0,0-.712,1.279,1.1,1.1,0,0,0,1.039.979,1.273,1.273,0,0,0,1.273-.877,1.572,1.572,0,0,0-.375-1.783,2.1,2.1,0,0,0-2.294-.244c-1.366.724-2.082,2.808-2.141,6.168a.626.626,0,0,0-.645.178c-1.172-2.955-2.518-4.575-4-4.785a2.1,2.1,0,0,0-2.071,1.013,1.592,1.592,0,0,0,.252,1.805,1.275,1.275,0,0,0,1.495.388,1.106,1.106,0,0,0,.652-1.275,1.156,1.156,0,0,0-1.115-.957.259.259,0,0,0-.256.257.256.256,0,0,0,.261.255.643.643,0,0,1,.608.548.59.59,0,0,1-.342.7.8.8,0,0,1-.917-.254,1.088,1.088,0,0,1-.194-1.214,1.6,1.6,0,0,1,1.56-.763c.933.131,2.332,1.1,3.745,4.842a.575.575,0,0,1-.024.063,7.788,7.788,0,0,0,.139,3.508l-.27-.707a6.923,6.923,0,0,0-7.554-4.421,3.526,3.526,0,0,0-2.691,1.806,3.865,3.865,0,0,0-.058,2.41,10.8,10.8,0,0,0,5.462,7.04,1.844,1.844,0,0,1,.57.389c.516.6.005,1.49-.4,2.17a7.389,7.389,0,0,0-.132,7.163,2.836,2.836,0,0,0,1.812,1.574,2.914,2.914,0,0,0,2.04-.617,9.524,9.524,0,0,0,4.077-6.585,9.5,9.5,0,0,0,5.27,4.473,2.944,2.944,0,0,0,2.132.061,2.822,2.822,0,0,0,1.331-2,7.381,7.381,0,0,0-2.007-6.879c-.569-.55-1.3-1.271-.955-1.985m-9.7,9.878c-2.981,2.127-2.137-5.586.458-5.444a.759.759,0,0,1,.548.431,3.872,3.872,0,0,1-1.006,5.013m8.706-1.6a3.874,3.874,0,0,1-2.1-4.663.779.779,0,0,1,.442-.543c2.489-.717,5.04,6.609,1.661,5.206" fill="#ddf4f2"/>
    <path id="Path_2" data-name="Path 2" d="M1269.557,4649.781a1.674,1.674,0,0,1,.533-.353,9.988,9.988,0,0,0,5.1-6.456,3.578,3.578,0,0,0-.029-2.224,3.273,3.273,0,0,0-2.476-1.695,6.4,6.4,0,0,0-7.01,4.018l-.553,1.408a.577.577,0,0,0,.01-.085c.063-.448.146-.943.185-1.446a3.954,3.954,0,0,0-.254-1.94c1.06-3.749,2.324-4.763,3.2-4.951a1.474,1.474,0,0,1,1.483.6,1.009,1.009,0,0,1-.1,1.131.739.739,0,0,1-.832.3.539.539,0,0,1-.355-.624.584.584,0,0,1,.524-.548.232.232,0,0,0,.218-.25.243.243,0,0,0-.25-.221,1.067,1.067,0,0,0-.963.958,1.02,1.02,0,0,0,.682,1.132,1.183,1.183,0,0,0,1.353-.459,1.475,1.475,0,0,0,.114-1.681,1.954,1.954,0,0,0-1.981-.791c-1.4.3-2.557,1.973-3.448,4.945a.586.586,0,0,0-.621-.007c-.3-2.922-1.083-4.7-2.352-5.255a1.951,1.951,0,0,0-2.1.38,1.474,1.474,0,0,0-.228,1.67,1.181,1.181,0,0,0,1.234.719,1.01,1.01,0,0,0,.889-.971,1.05,1.05,0,0,0-.742-1.13.238.238,0,0,0-.293.165.234.234,0,0,0,.166.289.587.587,0,0,1,.4.64.536.536,0,0,1-.478.539.74.74,0,0,1-.752-.455,1.017,1.017,0,0,1,.13-1.128,1.5,1.5,0,0,1,1.581-.288c.8.353,1.8,1.559,2.112,5.244-.011.018-.021.034-.034.052a7.176,7.176,0,0,0-.756,3.152l-.063-.7a6.4,6.4,0,0,0-5.6-5.826,3.253,3.253,0,0,0-2.847.926,3.566,3.566,0,0,0-.654,2.129,9.972,9.972,0,0,0,3.083,7.629,1.706,1.706,0,0,1,.411.488c.307.664-.367,1.326-.9,1.83a6.816,6.816,0,0,0-1.911,6.331,2.584,2.584,0,0,0,1.212,1.854,2.714,2.714,0,0,0,1.968-.036,8.811,8.811,0,0,0,5.278-4.829,8.788,8.788,0,0,0,3.561,5.3,2.688,2.688,0,0,0,1.874.585,2.6,2.6,0,0,0,1.69-1.438,6.816,6.816,0,0,0-.06-6.613c-.367-.632-.831-1.46-.352-2.008m-11.1,6.349c-3.177,1.14-.491-5.5,1.777-4.725a.7.7,0,0,1,.378.52,3.58,3.58,0,0,1-2.155,4.205m8.139.764a3.582,3.582,0,0,1-.7-4.669.714.714,0,0,1,.525-.376c2.4-.009,2.824,7.14.171,5.045" fill="#ddf4f2"/>
    <path id="Path_3" data-name="Path 3" d="M1169.37,4714.642a1.542,1.542,0,0,1,.3-.518,9.379,9.379,0,0,0,1.621-7.54,3.337,3.337,0,0,0-.95-1.857,3.031,3.031,0,0,0-2.777-.4,5.981,5.981,0,0,0-4.231,6.28l.118,1.409c-.009-.025-.017-.049-.029-.078-.133-.4-.266-.854-.44-1.288a3.6,3.6,0,0,0-1.023-1.525c-.652-3.589-.016-4.968.641-5.487a1.4,1.4,0,0,1,1.5-.115.949.949,0,0,1,.381.992.679.679,0,0,1-.569.592.512.512,0,0,1-.565-.375.556.556,0,0,1,.215-.677.224.224,0,0,0,.084-.3.218.218,0,0,0-.3-.077.989.989,0,0,0-.417,1.2.96.96,0,0,0,1.04.67,1.11,1.11,0,0,0,.951-.944,1.381,1.381,0,0,0-.6-1.462,1.826,1.826,0,0,0-1.991.152c-1.048.832-1.327,2.72-.851,5.583a.556.556,0,0,0-.525.253c-1.46-2.328-2.856-3.5-4.148-3.441a1.831,1.831,0,0,0-1.611,1.185,1.369,1.369,0,0,0,.505,1.5,1.106,1.106,0,0,0,1.331.093.962.962,0,0,0,.351-1.186.991.991,0,0,0-1.1-.638.22.22,0,0,0-.178.256.217.217,0,0,0,.257.174.559.559,0,0,1,.606.37.5.5,0,0,1-.179.653.686.686,0,0,1-.819-.07.95.95,0,0,1-.361-1,1.39,1.39,0,0,1,1.213-.892c.815-.036,2.153.558,3.944,3.531,0,.017-.008.034-.007.059a6.745,6.745,0,0,0,.667,2.961l-.338-.559a5.989,5.989,0,0,0-7.122-2.578,3.05,3.05,0,0,0-2.009,1.957,3.313,3.313,0,0,0,.331,2.06,9.349,9.349,0,0,0,5.751,5.134,1.722,1.722,0,0,1,.548.241c.53.43.235,1.269,0,1.91a6.358,6.358,0,0,0,1.01,6.114,2.43,2.43,0,0,0,1.789,1.057,2.535,2.535,0,0,0,1.637-.845,8.294,8.294,0,0,0,2.44-6.244,8.2,8.2,0,0,0,5.177,2.979,2.531,2.531,0,0,0,1.822-.283,2.448,2.448,0,0,0,.825-1.907,6.381,6.381,0,0,0-2.784-5.534c-.574-.379-1.305-.881-1.129-1.542m-6.7,9.928c-2.206,2.272-2.695-4.419-.467-4.7a.689.689,0,0,1,.537.28,3.363,3.363,0,0,1-.07,4.425m7.153-2.725a3.354,3.354,0,0,1-2.522-3.637.668.668,0,0,1,.291-.53c2.005-1,5.322,4.83,2.231,4.167" fill="#ddf4f2"/>
    <path id="Path_4" data-name="Path 4" d="M1267.444,4873.815a2.165,2.165,0,0,1,.644-.423,12.018,12.018,0,0,0,6.171-7.741,4.31,4.31,0,0,0-.032-2.675,3.921,3.921,0,0,0-2.961-2.045,7.7,7.7,0,0,0-8.456,4.8l-.664,1.687a.579.579,0,0,1,.01-.1c.075-.538.177-1.137.23-1.74a4.607,4.607,0,0,0-.307-2.332c1.3-4.5,2.822-5.718,3.875-5.942a1.783,1.783,0,0,1,1.785.725,1.22,1.22,0,0,1-.121,1.359.884.884,0,0,1-1,.351.66.66,0,0,1-.435-.753.712.712,0,0,1,.642-.652.285.285,0,0,0-.04-.568,1.271,1.271,0,0,0-1.162,1.147,1.226,1.226,0,0,0,.814,1.364,1.425,1.425,0,0,0,1.629-.545,1.764,1.764,0,0,0,.143-2.021,2.335,2.335,0,0,0-2.376-.959c-1.68.354-3.077,2.36-4.169,5.928a.689.689,0,0,0-.742-.009c-.355-3.514-1.29-5.656-2.812-6.33a2.343,2.343,0,0,0-2.524.446,1.765,1.765,0,0,0-.276,2.007,1.414,1.414,0,0,0,1.476.872,1.231,1.231,0,0,0,1.082-1.162,1.277,1.277,0,0,0-.9-1.365.283.283,0,1,0-.156.544.715.715,0,0,1,.487.773.655.655,0,0,1-.581.647.878.878,0,0,1-.9-.552,1.213,1.213,0,0,1,.159-1.356,1.781,1.781,0,0,1,1.9-.334c.958.424,2.158,1.879,2.516,6.312-.012.019-.027.038-.04.06a8.528,8.528,0,0,0-.923,3.789l-.074-.84a7.691,7.691,0,0,0-6.713-7.031,3.9,3.9,0,0,0-3.422,1.1,4.29,4.29,0,0,0-.8,2.557A11.989,11.989,0,0,0,1252.1,4872a2.03,2.03,0,0,1,.494.589c.367.8-.457,1.592-1.092,2.194a8.186,8.186,0,0,0-2.332,7.606,3.113,3.113,0,0,0,1.453,2.232,3.224,3.224,0,0,0,2.362-.034,10.6,10.6,0,0,0,6.372-5.781,10.53,10.53,0,0,0,4.255,6.385,3.227,3.227,0,0,0,2.253.712,3.126,3.126,0,0,0,2.037-1.717,8.209,8.209,0,0,0-.04-7.956c-.444-.762-1-1.757-.418-2.415m-13.37,7.581c-3.832,1.357-.57-6.615,2.151-5.672a.856.856,0,0,1,.459.627,4.305,4.305,0,0,1-2.61,5.045m9.779.957a4.307,4.307,0,0,1-.819-5.619.861.861,0,0,1,.635-.444c2.882,0,3.362,8.6.184,6.063" fill="#ddf4f2"/>
    <path id="Path_5" data-name="Path 5" d="M1207.744,4784.09a1.76,1.76,0,0,1,.575-.3,10.21,10.21,0,0,0,5.84-6.057,3.655,3.655,0,0,0,.191-2.269,3.325,3.325,0,0,0-2.342-1.968,6.54,6.54,0,0,0-7.538,3.385l-.7,1.376c.01-.029.014-.057.021-.081.106-.453.241-.952.334-1.456a3.986,3.986,0,0,0-.068-2c1.457-3.71,2.844-4.612,3.75-4.719a1.523,1.523,0,0,1,1.456.757,1.035,1.035,0,0,1-.218,1.142.747.747,0,0,1-.868.217.559.559,0,0,1-.311-.671.608.608,0,0,1,.588-.5.24.24,0,0,0,.251-.234.238.238,0,0,0-.234-.247,1.082,1.082,0,0,0-1.072.873,1.039,1.039,0,0,0,.584,1.22,1.2,1.2,0,0,0,1.417-.331,1.493,1.493,0,0,0,.284-1.7,2,2,0,0,0-1.931-1.007c-1.454.168-2.8,1.757-4.006,4.689a.588.588,0,0,0-.628-.07c-.014-3-.641-4.886-1.875-5.582a1.979,1.979,0,0,0-2.166.177,1.5,1.5,0,0,0-.4,1.676,1.2,1.2,0,0,0,1.182.854,1.05,1.05,0,0,0,1.01-.9,1.091,1.091,0,0,0-.649-1.224.242.242,0,1,0-.177.451.6.6,0,0,1,.348.69.551.551,0,0,1-.542.5.751.751,0,0,1-.721-.538,1.045,1.045,0,0,1,.247-1.136,1.51,1.51,0,0,1,1.633-.13c.777.437,1.682,1.764,1.632,5.545a.412.412,0,0,0-.044.048,7.256,7.256,0,0,0-1.086,3.132l.007-.716a6.535,6.535,0,0,0-5.119-6.487,3.318,3.318,0,0,0-2.987.659,3.657,3.657,0,0,0-.88,2.1,10.193,10.193,0,0,0,2.377,8.07,1.744,1.744,0,0,1,.37.538c.242.7-.51,1.309-1.1,1.769a6.96,6.96,0,0,0-2.581,6.25,2.66,2.66,0,0,0,1.05,2.006,2.748,2.748,0,0,0,2.005.16,9.02,9.02,0,0,0,5.853-4.382,8.966,8.966,0,0,0,3.093,5.746,2.754,2.754,0,0,0,1.845.781,2.646,2.646,0,0,0,1.861-1.291,6.97,6.97,0,0,0,.6-6.738c-.31-.676-.7-1.567-.157-2.076m-11.92,5.346c-3.355.843.043-5.642,2.272-4.626a.726.726,0,0,1,.338.566,3.66,3.66,0,0,1-2.61,4.06m8.2,1.594a3.658,3.658,0,0,1-.242-4.822.731.731,0,0,1,.574-.326c2.436.229,2.155,7.547-.332,5.148" fill="#ddf4f2"/>
    <path id="Path_6" data-name="Path 6" d="M1212.124,4671.31a1.892,1.892,0,0,1,.294-.706,11.9,11.9,0,0,0,.768-9.78,4.269,4.269,0,0,0-1.505-2.183,3.891,3.891,0,0,0-3.573-.034,7.627,7.627,0,0,0-4.281,8.633l.386,1.758a.57.57,0,0,0-.04-.09c-.241-.484-.488-1.032-.779-1.555a4.62,4.62,0,0,0-1.544-1.751c-1.433-4.42-.857-6.263-.118-7.027a1.779,1.779,0,0,1,1.871-.4,1.211,1.211,0,0,1,.65,1.189.869.869,0,0,1-.622.843.641.641,0,0,1-.77-.379.7.7,0,0,1,.153-.89.277.277,0,0,0,.053-.4.282.282,0,0,0-.394-.048,1.266,1.266,0,0,0-.318,1.587,1.221,1.221,0,0,0,1.424.668,1.4,1.4,0,0,0,1.036-1.351,1.748,1.748,0,0,0-1-1.742,2.333,2.333,0,0,0-2.489.529c-1.181,1.225-1.218,3.649-.133,7.184a.7.7,0,0,0-.619.407c-2.234-2.692-4.192-3.93-5.816-3.643a2.331,2.331,0,0,0-1.827,1.769,1.743,1.743,0,0,0,.885,1.8,1.411,1.411,0,0,0,1.7-.1,1.218,1.218,0,0,0,.237-1.557,1.266,1.266,0,0,0-1.493-.62.279.279,0,0,0-.178.353.29.29,0,0,0,.359.182.7.7,0,0,1,.824.363.637.637,0,0,1-.12.851.87.87,0,0,1-1.043.048,1.206,1.206,0,0,1-.624-1.2,1.779,1.779,0,0,1,1.376-1.334c1.022-.18,2.817.351,5.573,3.791v.072a8.47,8.47,0,0,0,1.343,3.625l-.522-.646a7.632,7.632,0,0,0-9.42-2.053,3.881,3.881,0,0,0-2.2,2.81,4.233,4.233,0,0,0,.76,2.542,11.9,11.9,0,0,0,8.117,5.506,1.989,1.989,0,0,1,.731.213c.748.451.515,1.559.318,2.408a8.131,8.131,0,0,0,2.311,7.541,3.093,3.093,0,0,0,2.433,1.029,3.2,3.2,0,0,0,1.924-1.34,10.518,10.518,0,0,0,2.024-8.286,10.436,10.436,0,0,0,7.037,2.884,3.234,3.234,0,0,0,2.251-.663,3.114,3.114,0,0,0,.718-2.542,8.129,8.129,0,0,0-4.45-6.515c-.782-.38-1.792-.891-1.68-1.752m-6.775,13.649c-2.4,3.241-4.143-5.118-1.384-5.855a.85.85,0,0,1,.723.262,4.276,4.276,0,0,1,.661,5.593m8.565-4.642a4.271,4.271,0,0,1-3.794-4.164.844.844,0,0,1,.274-.715c2.369-1.6,7.536,5.195,3.52,4.879" fill="#ddf4f2"/>
    <path id="Path_7" data-name="Path 7" d="M1389.418,4870.691a1.569,1.569,0,0,1,.242-.578,9.75,9.75,0,0,0,.628-8.01,3.492,3.492,0,0,0-1.232-1.786,3.178,3.178,0,0,0-2.925-.028,6.242,6.242,0,0,0-3.506,7.068l.317,1.44a.779.779,0,0,0-.034-.073c-.2-.4-.4-.846-.637-1.273a3.8,3.8,0,0,0-1.264-1.434c-1.176-3.62-.7-5.129-.1-5.754a1.46,1.46,0,0,1,1.534-.329.991.991,0,0,1,.533.973.715.715,0,0,1-.509.691.53.53,0,0,1-.633-.31.58.58,0,0,1,.126-.73.225.225,0,0,0,.043-.322.23.23,0,0,0-.322-.041,1.039,1.039,0,0,0-.26,1.3,1,1,0,0,0,1.167.547,1.148,1.148,0,0,0,.847-1.106,1.429,1.429,0,0,0-.819-1.426,1.907,1.907,0,0,0-2.038.434c-.967,1-1,2.987-.108,5.882a.567.567,0,0,0-.506.333c-1.832-2.205-3.434-3.218-4.764-2.983a1.906,1.906,0,0,0-1.5,1.448,1.421,1.421,0,0,0,.727,1.476,1.153,1.153,0,0,0,1.391-.083,1,1,0,0,0,.194-1.275,1.035,1.035,0,0,0-1.222-.508.23.23,0,0,0-.146.288.236.236,0,0,0,.293.15.571.571,0,0,1,.674.3.52.52,0,0,1-.1.7.71.71,0,0,1-.854.04.985.985,0,0,1-.51-.984,1.458,1.458,0,0,1,1.126-1.093c.837-.147,2.307.288,4.564,3.1v.059a6.946,6.946,0,0,0,1.1,2.969l-.426-.53a6.249,6.249,0,0,0-7.713-1.681,3.179,3.179,0,0,0-1.8,2.3,3.463,3.463,0,0,0,.621,2.081,9.754,9.754,0,0,0,6.647,4.51,1.6,1.6,0,0,1,.6.174c.613.369.421,1.276.263,1.973a6.657,6.657,0,0,0,1.889,6.174,2.545,2.545,0,0,0,1.993.843,2.618,2.618,0,0,0,1.576-1.1,8.605,8.605,0,0,0,1.655-6.786,8.553,8.553,0,0,0,5.765,2.363,2.64,2.64,0,0,0,1.843-.543,2.547,2.547,0,0,0,.588-2.082,6.656,6.656,0,0,0-3.643-5.335c-.641-.311-1.469-.73-1.377-1.434m-5.548,11.176c-1.962,2.654-3.392-4.19-1.134-4.794a.693.693,0,0,1,.592.215,3.5,3.5,0,0,1,.542,4.579m7.014-3.8a3.5,3.5,0,0,1-3.107-3.409.692.692,0,0,1,.224-.587c1.94-1.311,6.171,4.255,2.883,4" fill="#ddf4f2"/>
    <path id="Path_8" data-name="Path 8" d="M1449.519,4802.157a1.785,1.785,0,0,1,.378-.514,9.989,9.989,0,0,0,2.569-7.813,3.6,3.6,0,0,0-.8-2.081,3.251,3.251,0,0,0-2.9-.734,6.385,6.385,0,0,0-5.191,6.185l-.037,1.512c-.005-.027-.012-.054-.015-.084-.095-.44-.2-.934-.329-1.419a3.841,3.841,0,0,0-.912-1.731c-.288-3.885.542-5.269,1.295-5.748a1.487,1.487,0,0,1,1.6.045,1.013,1.013,0,0,1,.3,1.1.728.728,0,0,1-.675.561.55.55,0,0,1-.557-.461.6.6,0,0,1,.306-.694.236.236,0,0,0,.124-.311.239.239,0,0,0-.315-.117,1.053,1.053,0,0,0-.57,1.226,1.014,1.014,0,0,0,1.027.827,1.18,1.18,0,0,0,1.112-.9,1.467,1.467,0,0,0-.469-1.614,1.952,1.952,0,0,0-2.132-.062c-1.21.766-1.716,2.731-1.531,5.827a.575.575,0,0,0-.583.209c-1.291-2.636-2.642-4.034-4.019-4.118a1.941,1.941,0,0,0-1.84,1.078,1.467,1.467,0,0,0,.363,1.645,1.186,1.186,0,0,0,1.409.251,1.025,1.025,0,0,0,.5-1.219,1.058,1.058,0,0,0-1.089-.8.235.235,0,0,0-.217.253.231.231,0,0,0,.251.216.6.6,0,0,1,.6.462.542.542,0,0,1-.27.671.725.725,0,0,1-.856-.167,1.018,1.018,0,0,1-.272-1.1,1.5,1.5,0,0,1,1.387-.813c.87.056,2.226.841,3.791,4.187,0,.025-.014.04-.018.064a7.176,7.176,0,0,0,.376,3.218l-.3-.632a6.394,6.394,0,0,0-7.265-3.532,3.255,3.255,0,0,0-2.355,1.85,3.612,3.612,0,0,0,.121,2.223,9.992,9.992,0,0,0,5.526,6.093,1.634,1.634,0,0,1,.551.318c.518.516.111,1.37-.214,2.022a6.817,6.817,0,0,0,.386,6.6,2.622,2.622,0,0,0,1.781,1.323,2.722,2.722,0,0,0,1.832-.714,8.825,8.825,0,0,0,3.289-6.35,8.78,8.78,0,0,0,5.158,3.745,2.73,2.73,0,0,0,1.969-.1,2.6,2.6,0,0,0,1.085-1.927,6.806,6.806,0,0,0-2.336-6.187c-.563-.464-1.286-1.08-1.024-1.763m-8.221,9.782c-2.589,2.166-2.36-4.989.034-5.043a.708.708,0,0,1,.541.359,3.575,3.575,0,0,1-.575,4.684m7.9-2.087a3.57,3.57,0,0,1-2.262-4.14.7.7,0,0,1,.365-.532c2.245-.837,5.109,5.721,1.9,4.672" fill="#ddf4f2"/>
    <path id="Path_9" data-name="Path 9" d="M1433.588,4686.206a2.233,2.233,0,0,1,.748-.358,12.949,12.949,0,0,0,7.74-7.361,4.665,4.665,0,0,0,.371-2.868,4.237,4.237,0,0,0-2.866-2.623,8.307,8.307,0,0,0-9.755,3.879l-.959,1.705c.005-.034.016-.069.024-.106.159-.562.363-1.188.5-1.827a5.041,5.041,0,0,0,.022-2.537c2.061-4.627,3.864-5.7,5.018-5.779a1.932,1.932,0,0,1,1.806,1.037,1.311,1.311,0,0,1-.335,1.435.951.951,0,0,1-1.117.23.707.707,0,0,1-.351-.868.763.763,0,0,1,.776-.6.311.311,0,0,0,.329-.286.3.3,0,0,0-.288-.323,1.369,1.369,0,0,0-1.409,1.052,1.329,1.329,0,0,0,.668,1.577,1.532,1.532,0,0,0,1.822-.339,1.9,1.9,0,0,0,.458-2.142,2.547,2.547,0,0,0-2.4-1.382c-1.847.135-3.641,2.071-5.336,5.726a.755.755,0,0,0-.795-.12c.143-3.807-.539-6.234-2.063-7.183a2.534,2.534,0,0,0-2.768.1,1.905,1.905,0,0,0-.595,2.106,1.53,1.53,0,0,0,1.45,1.15,1.324,1.324,0,0,0,1.329-1.082,1.371,1.371,0,0,0-.759-1.591.306.306,0,0,0-.4.158.31.31,0,0,0,.155.4.762.762,0,0,1,.407.9.7.7,0,0,1-.715.605.953.953,0,0,1-.882-.723,1.317,1.317,0,0,1,.375-1.429,1.928,1.928,0,0,1,2.078-.075c.964.6,2.029,2.33,1.76,7.122-.018.021-.037.04-.054.061a9.178,9.178,0,0,0-1.549,3.914l.046-.91a8.3,8.3,0,0,0-6.136-8.509,4.226,4.226,0,0,0-3.829.672,4.639,4.639,0,0,0-1.23,2.618,12.956,12.956,0,0,0,2.569,10.366,2.229,2.229,0,0,1,.443.7c.27.908-.724,1.636-1.5,2.185a8.834,8.834,0,0,0-3.616,7.788,3.369,3.369,0,0,0,1.221,2.6,3.5,3.5,0,0,0,2.534.311,11.428,11.428,0,0,0,7.664-5.241,11.382,11.382,0,0,0,3.608,7.459,3.5,3.5,0,0,0,2.3,1.1,3.378,3.378,0,0,0,2.429-1.538,8.829,8.829,0,0,0,1.135-8.514c-.359-.877-.8-2.024-.084-2.642m-15.423,6.127c-4.3.882.37-7.159,3.142-5.747a.917.917,0,0,1,.4.737,4.648,4.648,0,0,1-3.539,5.01m10.315,2.47a4.649,4.649,0,0,1-.041-6.129.926.926,0,0,1,.745-.382c3.08.426,2.319,9.692-.7,6.511" fill="#ddf4f2"/>
    <path id="Path_10" data-name="Path 10" d="M1472.547,4771.794a1.562,1.562,0,0,1,.589-.05,9.274,9.274,0,0,0,7.031-2.972,3.325,3.325,0,0,0,.963-1.824,3.029,3.029,0,0,0-1.253-2.48,5.935,5.935,0,0,0-7.494.141l-1.072.9a.382.382,0,0,0,.046-.059c.245-.341.536-.709.8-1.1a3.6,3.6,0,0,0,.655-1.69c2.536-2.575,4.013-2.834,4.8-2.6a1.357,1.357,0,0,1,.947,1.149.936.936,0,0,1-.59.873.674.674,0,0,1-.8-.128.505.505,0,0,1-.017-.669.548.548,0,0,1,.674-.211.213.213,0,0,0,.29-.108.211.211,0,0,0-.111-.287.975.975,0,0,0-1.2.348.934.934,0,0,0,.049,1.221,1.089,1.089,0,0,0,1.3.234,1.373,1.373,0,0,0,.842-1.317,1.808,1.808,0,0,0-1.256-1.528c-1.273-.377-2.954.471-5.011,2.484a.543.543,0,0,0-.5-.281c1.056-2.5,1.21-4.3.429-5.32a1.8,1.8,0,0,0-1.875-.627,1.354,1.354,0,0,0-.925,1.254,1.1,1.1,0,0,0,.684,1.136.946.946,0,0,0,1.16-.389.993.993,0,0,0-.108-1.253.217.217,0,0,0-.311,0,.221.221,0,0,0,0,.307.543.543,0,0,1,.052.7.505.505,0,0,1-.634.221.69.69,0,0,1-.408-.7.946.946,0,0,1,.611-.86,1.365,1.365,0,0,1,1.407.474c.493.642.769,2.067-.614,5.2-.018.01-.032.013-.053.024a6.632,6.632,0,0,0-2.021,2.229l.257-.6a5.931,5.931,0,0,0-1.953-7.235,3.027,3.027,0,0,0-2.733-.513,3.317,3.317,0,0,0-1.482,1.44,9.252,9.252,0,0,0-.887,7.573,1.691,1.691,0,0,1,.114.582c-.044.676-.891.914-1.544,1.084a6.325,6.325,0,0,0-4.382,4.3,2.393,2.393,0,0,0,.164,2.048,2.517,2.517,0,0,0,1.617.849,4.146,4.146,0,1,1,6.97,4.317,2.51,2.51,0,0,0,1.271,1.313,2.4,2.4,0,0,0,2.009-.417,6.315,6.315,0,0,0,2.9-5.4c-.02-.675-.03-1.554.6-1.786m-11.852.212c-3.091-.488,2.049-4.692,3.553-3.047a.693.693,0,0,1,.078.59,3.326,3.326,0,0,1-3.631,2.457m6.276,4.249a3.322,3.322,0,0,1,1.516-4.107.661.661,0,0,1,.594-.067c1.952,1.06-.887,7.064-2.11,4.174" fill="#ddf4f2"/>
    <path id="Path_11" data-name="Path 11" d="M1322.938,4682.271a2.26,2.26,0,0,1,.78-.283,12.968,12.968,0,0,0,8.4-6.6,4.692,4.692,0,0,0,.638-2.821,4.246,4.246,0,0,0-2.614-2.88,8.3,8.3,0,0,0-10.069,2.944l-1.118,1.61a.566.566,0,0,1,.039-.1c.21-.548.462-1.152.67-1.774a5.03,5.03,0,0,0,.258-2.524c2.48-4.412,4.382-5.309,5.54-5.282a1.925,1.925,0,0,1,1.7,1.2,1.311,1.311,0,0,1-.473,1.4.949.949,0,0,1-1.129.121.707.707,0,0,1-.271-.9.761.761,0,0,1,.831-.528.31.31,0,0,0,.352-.252.3.3,0,0,0-.254-.353,1.371,1.371,0,0,0-1.5.916,1.328,1.328,0,0,0,.513,1.635,1.537,1.537,0,0,0,1.847-.168,1.894,1.894,0,0,0,.653-2.088,2.535,2.535,0,0,0-2.257-1.6c-1.854-.042-3.822,1.72-5.854,5.2a.745.745,0,0,0-.776-.2c.5-3.778.048-6.257-1.381-7.344a2.537,2.537,0,0,0-2.763-.161,1.919,1.919,0,0,0-.792,2.039,1.523,1.523,0,0,0,1.337,1.284,1.323,1.323,0,0,0,1.422-.954,1.375,1.375,0,0,0-.6-1.652.3.3,0,0,0-.3.533.771.771,0,0,1,.319.932.7.7,0,0,1-.774.533.947.947,0,0,1-.808-.8,1.312,1.312,0,0,1,.506-1.385,1.934,1.934,0,0,1,2.082.119c.9.688,1.8,2.509,1.083,7.256-.023.019-.046.035-.065.054a9.373,9.373,0,0,0-1.912,3.751l.138-.9a8.31,8.31,0,0,0-5.311-9.052,4.235,4.235,0,0,0-3.875.309,4.632,4.632,0,0,0-1.473,2.487,12.943,12.943,0,0,0,1.587,10.566,2.218,2.218,0,0,1,.37.74c.185.93-.871,1.559-1.692,2.034a8.846,8.846,0,0,0-4.334,7.414,3.361,3.361,0,0,0,.972,2.707,3.5,3.5,0,0,0,2.491.55,11.449,11.449,0,0,0,8.128-4.5,11.365,11.365,0,0,0,2.887,7.762,3.509,3.509,0,0,0,2.191,1.312,3.392,3.392,0,0,0,2.565-1.3,8.858,8.858,0,0,0,1.932-8.369c-.277-.908-.613-2.093.158-2.641m-15.926,4.65c-4.362.478,1.044-7.089,3.67-5.425a.912.912,0,0,1,.316.774,4.632,4.632,0,0,1-3.986,4.651m10.04,3.432a4.636,4.636,0,0,1,.533-6.106.909.909,0,0,1,.776-.311c3.031.713,1.4,9.865-1.309,6.417" fill="#ddf4f2"/>
    <path id="Path_12" data-name="Path 12" d="M1261.71,4707.026c-2.62-8.427,2.232-17.706,9.417-22.583.457-.307,4.9-3.1,4.915-3.072,1.741,2.957,3.268,5.523,3.789,8.956a20.178,20.178,0,0,1-.812,9.554,21.772,21.772,0,0,1-13.879,13.375c3.913-6.555,9.235-16.126,9.007-27.544-2.037,7.069-8.508,20.961-12.374,26.666-11.973-6.192-17.969-11.735-24.476-16.936,4.678,7.965,14.38,18.724,23.166,22.238a47.492,47.492,0,0,1-8.111.629,25.217,25.217,0,0,1-11.409-3.62,27.775,27.775,0,0,1-7.69-8.191c-3.812-5.657-3.753-10.063-4.848-16.462,7.673-.042,13.59.253,20.443,3.851,5.441,2.856,11.019,7.212,12.862,13.139" fill="#ddf4f2"/>
    <path id="Path_13" data-name="Path 13" d="M1273.271,4732.185c2.916,5.185,9.621,7.277,15.231,6.211.354-.067,3.721-.832,3.714-.848a16.892,16.892,0,0,0-2.65-5.98,14.127,14.127,0,0,0-5.013-4.111,14.408,14.408,0,0,0-12.771.2c4.958,1.252,12.016,3.262,17.468,8.735a89.216,89.216,0,0,0-18.556-6.751c-2.391,8.506-2.4,13.911-2.809,19.4-1.763-5.927-2.619-15.516-.364-21.277a29.806,29.806,0,0,0-3.968,3.5,15.984,15.984,0,0,0-3.388,7.032,18.583,18.583,0,0,0,.514,7.441c1.029,4.441,3.2,6.484,5.823,10,3.485-3.567,6.01-6.47,7.353-11.363,1.063-3.884,1.459-8.536-.584-12.183" fill="#ddf4f2"/>
    <path id="Path_14" data-name="Path 14" d="M1226.589,4826.9c-3.756-2.541-4.918-7.765-3.75-11.962.073-.267.865-2.77.88-2.765a12.873,12.873,0,0,1,4.373,2.389,10.854,10.854,0,0,1,2.8,4.07,11.007,11.007,0,0,1-.96,9.687c-.639-3.846-1.717-9.333-5.524-13.82a68.323,68.323,0,0,1,3.948,14.52c-6.613,1.276-10.717.938-14.907.9,4.387,1.717,11.614,2.976,16.128,1.627a22.763,22.763,0,0,1-2.906,2.791,12.137,12.137,0,0,1-5.556,2.124,14.051,14.051,0,0,1-5.617-.864c-3.3-1.065-4.716-2.841-7.218-5.056,2.926-2.417,5.289-4.152,9.094-4.861,3.013-.559,6.573-.568,9.212,1.219" fill="#ddf4f2"/>
    <path id="Path_15" data-name="Path 15" d="M1415.235,4822.174c2.932-2.867,7.769-2.948,11.275-1.152.223.115,2.3,1.271,2.291,1.282a11.656,11.656,0,0,1-2.913,3.439,9.793,9.793,0,0,1-4.112,1.744,9.95,9.95,0,0,1-8.405-2.608c3.522.131,8.577.173,13.242-2.385a61.616,61.616,0,0,1-13.575.861,56.925,56.925,0,0,1,1.907-13.366c-2.317,3.573-4.744,9.746-4.367,13.989a20.356,20.356,0,0,1-1.947-3.081,10.947,10.947,0,0,1-.871-5.306,12.653,12.653,0,0,1,1.784-4.816c1.543-2.735,3.372-3.664,5.787-5.476,1.609,3.029,2.721,5.436,2.655,8.935-.051,2.77-.689,5.927-2.751,7.94" fill="#ddf4f2"/>
    <path id="Path_16" data-name="Path 16" d="M1230.96,4849.329c-2.282,2.486-6.258,2.773-9.22,1.459-.19-.082-1.945-.94-1.939-.951a9.443,9.443,0,0,1,2.236-2.958,8.055,8.055,0,0,1,3.3-1.622,8.181,8.181,0,0,1,7.025,1.765c-2.9.05-7.055.245-10.774,2.561a50.662,50.662,0,0,1,11.12-1.323,46.77,46.77,0,0,1-.963,11.073c1.746-3.045,3.454-8.23,2.955-11.7a16.669,16.669,0,0,1,1.741,2.443,8.977,8.977,0,0,1,.956,4.322,10.477,10.477,0,0,1-1.243,4.039c-1.148,2.319-2.606,3.168-4.509,4.771-1.466-2.421-2.482-4.349-2.59-7.227-.086-2.28.295-4.9,1.9-6.651" fill="#ddf4f2"/>
    <path id="Path_17" data-name="Path 17" d="M1401.149,4783.235c4.937.987,9.978-2.168,12.39-6.359.151-.267,1.515-2.848,1.5-2.854a14.235,14.235,0,0,0-5.3-1.6,12.063,12.063,0,0,0-5.406.955,12.222,12.222,0,0,0-6.909,8.315c3.535-2.495,8.719-5.92,15.238-6.4a75.451,75.451,0,0,0-14.564,8.2c4.14,6.225,7.607,9.21,10.909,12.5-4.784-2.136-11.411-6.873-13.868-11.5a25.585,25.585,0,0,0,.058,4.475,13.5,13.5,0,0,0,2.651,6.053,15.657,15.657,0,0,0,5.061,3.773c3.419,1.785,5.926,1.517,9.631,1.775-.368-4.205-.84-7.426-3.242-10.988-1.91-2.823-4.675-5.647-8.148-6.339" fill="#ddf4f2"/>
    <path id="Path_18" data-name="Path 18" d="M1396.125,4838.809a6.238,6.238,0,0,1,6.718-2.185c.15.04,1.565.472,1.564.483a7.368,7.368,0,0,1-1.318,2.476,6.053,6.053,0,0,1-7.744,1.116,15.478,15.478,0,0,0,7.755-3.189,38.415,38.415,0,0,1-8.157,2.307,35.865,35.865,0,0,1-.6-8.392c-.942,2.482-1.6,6.564-.814,9.1a12.662,12.662,0,0,1-1.592-1.62,6.862,6.862,0,0,1-1.23-3.116,7.821,7.821,0,0,1,.453-3.17c.577-1.869,1.57-2.676,2.8-4.1a10.643,10.643,0,0,1,2.793,5.093,7.041,7.041,0,0,1-.632,5.2" fill="#ddf4f2"/>
    <path id="Path_19" data-name="Path 19" d="M1432.247,4758.911a6.07,6.07,0,0,0-5.406-4.262c-.148-.017-1.585-.095-1.588-.086a7.173,7.173,0,0,0,.368,2.711,5.91,5.91,0,0,0,6.7,3.631,15.153,15.153,0,0,1-6.013-5.535,37.43,37.43,0,0,0,6.684,4.862,34.727,34.727,0,0,0,3.372-7.473c.027,2.586-.739,6.542-2.32,8.6a12.267,12.267,0,0,0,2-.947,6.667,6.667,0,0,0,2.177-2.435,7.819,7.819,0,0,0,.658-3.052c.095-1.9-.542-2.978-1.186-4.694a10.338,10.338,0,0,0-4.273,3.718,6.918,6.918,0,0,0-1.178,4.967" fill="#ddf4f2"/>
    <path id="Path_20" data-name="Path 20" d="M1417.04,4846.352c2.9,2.242,3.576,6.518,2.423,9.85-.072.211-.84,2.192-.854,2.188a10.451,10.451,0,0,1-3.408-2.15,8.708,8.708,0,0,1-.8-11.2c.324,3.135.917,7.617,3.76,11.441a55.348,55.348,0,0,1-2.448-11.931,51.182,51.182,0,0,1,12.088.03c-3.464-1.611-9.235-2.991-12.95-2.131a18.655,18.655,0,0,1,2.489-2.107,9.836,9.836,0,0,1,4.591-1.436,11.4,11.4,0,0,1,4.5.98c2.61,1.027,3.665,2.534,5.574,4.451-2.487,1.8-4.489,3.082-7.588,3.466-2.463.3-5.34.124-7.381-1.45" fill="#ddf4f2"/>
    <path id="Path_21" data-name="Path 21" d="M1328.477,4727.641a3.165,3.165,0,0,1,2.485-2.582c.08-.016.816-.162.816-.157a3.76,3.76,0,0,1,0,1.426,3.226,3.226,0,0,1-.64,1.26,3.138,3.138,0,0,1-2.56,1.084,7.813,7.813,0,0,0,2.708-3.278,19.386,19.386,0,0,1-3.1,2.982,17.882,17.882,0,0,1-2.268-3.617,8.292,8.292,0,0,0,1.8,4.267,6.4,6.4,0,0,1-1.1-.345,3.451,3.451,0,0,1-1.292-1.1,3.988,3.988,0,0,1-.558-1.527,5.461,5.461,0,0,1,.28-2.505,5.368,5.368,0,0,1,2.464,1.613,3.583,3.583,0,0,1,.959,2.48" fill="#ddf4f2"/>
    <path id="Path_22" data-name="Path 22" d="M1427.083,4724.647c-1.877-5.224-7.728-8.189-13.061-8.079-.335,0-3.549.189-3.551.209a15.888,15.888,0,0,0,1.513,5.913,13.163,13.163,0,0,0,15.767,6.354c-4.367-1.922-10.559-4.861-14.727-10.746a83.337,83.337,0,0,0,16.037,9.09c3.518-7.458,4.37-12.436,5.592-17.416.707,5.73.006,14.688-2.964,19.636a27.67,27.67,0,0,0,4.2-2.6,14.825,14.825,0,0,0,4.2-5.947,17.1,17.1,0,0,0,.684-6.93c-.264-4.246-1.942-6.462-3.807-10.108-3.76,2.743-6.534,5.023-8.529,9.317-1.583,3.409-2.676,7.638-1.353,11.308" fill="#ddf4f2"/>
    <path id="Path_23" data-name="Path 23" d="M1455.6,4741.5c3.613-1.618,5.4-5.937,5.034-9.723-.021-.239-.326-2.516-.339-2.515a11.29,11.29,0,0,0-4.126,1.4,9.481,9.481,0,0,0-3.026,3.08,9.576,9.576,0,0,0-.635,8.473c1.128-3.2,2.884-7.765,6.844-11.051a59.24,59.24,0,0,0-5.595,11.9,54.712,54.712,0,0,0,12.689,3.027c-4.037.813-10.447.8-14.126-1.04a19.657,19.657,0,0,0,2.079,2.843,10.591,10.591,0,0,0,4.458,2.669,12.323,12.323,0,0,0,4.96.1c3.009-.415,4.489-1.729,6.983-3.253-2.156-2.524-3.925-4.376-7.088-5.557-2.511-.947-5.575-1.49-8.112-.351" fill="#ddf4f2"/>
    <path id="Path_24" data-name="Path 24" d="M1375.554,4705.354c.211-9.007-6.9-16.911-15.034-19.864-.519-.186-5.487-1.79-5.492-1.759-.854,3.375-1.607,6.305-1.176,9.832a21.5,21.5,0,0,0,3.356,9.226,21.808,21.808,0,0,0,16.779,9.608c-5.482-5.46-13.119-13.533-15.989-24.868,3.843,6.45,13.74,18.5,18.946,23.129,9.688-9.226,13.876-16.257,18.643-23.082-2.286,9.081-8.58,22.226-15.969,27.979a45.259,45.259,0,0,0,7.871-1.487,24.061,24.061,0,0,0,9.839-6.538,27.922,27.922,0,0,0,5.08-10.088c2.092-6.573.846-10.909.155-17.516-7.292,1.952-12.826,3.779-18.358,9.11-4.389,4.234-8.5,9.984-8.651,16.318" fill="#ddf4f2"/>
    <path id="Path_25" data-name="Path 25" d="M1372.542,4733.117c-1.3,6.409,2.768,12.973,8.2,16.126.346.2,3.691,1.982,3.7,1.96a18.621,18.621,0,0,0,2.1-6.874,15.555,15.555,0,0,0-1.216-7.024,15.85,15.85,0,0,0-10.76-9.023c3.217,4.606,7.639,11.356,8.244,19.829a98.359,98.359,0,0,0-10.581-18.962c-8.106,5.351-12,9.84-16.284,14.108,2.8-6.2,8.978-14.791,15-17.954a33.159,33.159,0,0,0-5.813.055,17.438,17.438,0,0,0-7.875,3.411,20.328,20.328,0,0,0-4.926,6.557c-2.337,4.432-2,7.689-2.354,12.5,5.461-.46,9.65-1.056,14.285-4.159,3.687-2.462,7.362-6.046,8.276-10.552" fill="#ddf4f2"/>
    <path id="Path_26" data-name="Path 26" d="M1375.751,4779.447c-5.374-1.169-10.931,2.175-13.637,6.707-.178.285-1.7,3.076-1.694,3.084a15.553,15.553,0,0,0,5.753,1.841,13.12,13.12,0,0,0,5.909-.939,13.317,13.317,0,0,0,7.7-8.936c-3.905,2.65-9.62,6.29-16.744,6.694a82.471,82.471,0,0,0,16.046-8.667c-4.4-6.87-8.132-10.187-11.665-13.834,5.174,2.418,12.313,7.706,14.905,12.8a27.415,27.415,0,0,0,.022-4.879,14.648,14.648,0,0,0-2.778-6.651,17.026,17.026,0,0,0-5.448-4.21c-3.7-2.012-6.437-1.767-10.474-2.118.324,4.593.782,8.118,3.331,12.045,2.026,3.118,5,6.246,8.775,7.067" fill="#ddf4f2"/>
    <path id="Path_27" data-name="Path 27" d="M1245.456,4788.709c-5.647,2-12.111-.867-15.656-5.392-.227-.289-2.266-3.1-2.248-3.108a16.919,16.919,0,0,1,5.964-2.774,14.321,14.321,0,0,1,6.524.209,14.519,14.519,0,0,1,9.544,8.619c-4.586-2.34-11.265-5.5-19.023-4.963a89.819,89.819,0,0,1,18.533,7.19c-3.826,8.026-7.4,12.123-10.728,16.547,5.266-3.32,12.268-10.013,14.372-15.873a29.7,29.7,0,0,1,.689,5.279,16.045,16.045,0,0,1-2.095,7.568,18.61,18.61,0,0,1-5.318,5.3c-3.727,2.679-6.719,2.787-11.038,3.715-.275-5.01-.262-8.881,1.961-13.476,1.769-3.65,4.549-7.439,8.519-8.839" fill="#ddf4f2"/>
    <path id="Path_28" data-name="Path 28" d="M1268.374,4780.294c5.146-1.921,11.12.6,14.444,4.7.212.26,2.133,2.8,2.113,2.816a15.562,15.562,0,0,1-5.431,2.639,13.107,13.107,0,0,1-5.982-.092,13.3,13.3,0,0,1-8.89-7.751c4.241,2.072,10.418,4.857,17.523,4.25a82.767,82.767,0,0,1-17.115-6.3c3.388-7.424,6.6-11.24,9.585-15.349-4.774,3.128-11.093,9.378-12.936,14.785a27.108,27.108,0,0,1-.714-4.831,14.7,14.7,0,0,1,1.8-6.973,17.074,17.074,0,0,1,4.805-4.945c3.366-2.517,6.116-2.661,10.06-3.581.33,4.591.379,8.143-1.59,12.394-1.558,3.376-4.057,6.894-7.672,8.243" fill="#ddf4f2"/>
    <path id="Path_29" data-name="Path 29" d="M1310.735,4833.9c2.811.977,6.011-.461,7.759-2.716.108-.142,1.117-1.539,1.107-1.546a8.515,8.515,0,0,0-2.971-1.363,7.122,7.122,0,0,0-3.239.123,7.207,7.207,0,0,0-4.714,4.3c2.275-1.172,5.582-2.752,9.434-2.514a44.643,44.643,0,0,0-9.177,3.618,41.3,41.3,0,0,0,5.361,8.184c-2.621-1.634-6.113-4.94-7.175-7.84a14.392,14.392,0,0,0-.324,2.619,7.986,7.986,0,0,0,1.055,3.753,9.308,9.308,0,0,0,2.658,2.616c1.847,1.318,3.337,1.364,5.485,1.815.12-2.486.109-4.41-1.011-6.685a8.2,8.2,0,0,0-4.248-4.363" fill="#ddf4f2"/>
    <path id="Path_30" data-name="Path 30" d="M1298.433,4829.346c-2.67-.543-5.4,1.154-6.718,3.421-.08.143-.822,1.535-.816,1.543a7.7,7.7,0,0,0,2.867.871,6.509,6.509,0,0,0,2.923-.505,6.586,6.586,0,0,0,3.756-4.485,16.567,16.567,0,0,1-8.259,3.437,40.618,40.618,0,0,0,7.9-4.412,37.2,37.2,0,0,0-5.882-6.782c2.588,1.162,6.167,3.738,7.486,6.245a13.677,13.677,0,0,0-.023-2.423,7.3,7.3,0,0,0-1.421-3.278,8.472,8.472,0,0,0-2.737-2.053c-1.846-.971-3.2-.831-5.208-.978a11.285,11.285,0,0,0,1.739,5.954,7.526,7.526,0,0,0,4.4,3.445" fill="#ddf4f2"/>
    <path id="Path_31" data-name="Path 31" d="M1211.242,4723.64c.266-6.238,5.543-11.385,11.308-13.062.366-.1,3.874-.991,3.88-.968a17.656,17.656,0,0,1,.365,6.854,14.851,14.851,0,0,1-2.738,6.234,15.126,15.126,0,0,1-12.051,5.888c4.046-3.532,9.694-8.77,12.2-16.481a93.937,93.937,0,0,1-14.157,15.143c-6.287-6.822-8.863-11.878-11.856-16.816,1.169,6.387,4.925,15.765,9.778,20.084a32.027,32.027,0,0,1-5.375-1.383,16.7,16.7,0,0,1-6.511-4.973,19.34,19.34,0,0,1-3.06-7.208c-1.149-4.648-.086-7.588.69-12.126,4.955,1.678,8.7,3.194,12.286,7.133,2.844,3.13,5.435,7.293,5.244,11.681" fill="#ddf4f2"/>
    <path id="Path_32" data-name="Path 32" d="M1210.364,4757.665c1.632-2.1,4.731-2.58,7.142-1.742.155.055,1.587.616,1.583.623a7.566,7.566,0,0,1-1.561,2.471,6.3,6.3,0,0,1-8.118.551,16.141,16.141,0,0,0,8.291-2.707,39.877,39.877,0,0,1-8.645,1.758,36.889,36.889,0,0,1,.04-8.757c-1.177,2.506-2.184,6.688-1.566,9.379a14.048,14.048,0,0,1-1.523-1.8,7.176,7.176,0,0,1-1.031-3.334,8.241,8.241,0,0,1,.716-3.257c.751-1.894,1.842-2.651,3.235-4.031a11.1,11.1,0,0,1,2.5,5.5,7.387,7.387,0,0,1-1.063,5.349" fill="#ddf4f2"/>
    <path id="Path_33" data-name="Path 33" d="M1249.626,4838.661a4.728,4.728,0,0,1,1.158-5.221c.085-.084.909-.838.914-.833a5.375,5.375,0,0,1,1.1,1.816,4.505,4.505,0,0,1,.173,2.1,4.689,4.689,0,0,1-2.414,3.376,11.749,11.749,0,0,0,.894-6.285,28.611,28.611,0,0,1-1.628,6.21,27.344,27.344,0,0,1-5.7-2.837c1.262,1.567,3.665,3.567,5.623,4.029a9.531,9.531,0,0,1-1.673.414,5.187,5.187,0,0,1-2.506-.394,6.059,6.059,0,0,1-1.888-1.516,2.413,2.413,0,1,1,2.8-3.269,5.36,5.36,0,0,1,3.146,2.413" fill="#ddf4f2"/>
    <path id="Path_34" data-name="Path 34" d="M1187.751,4750.031c-4.56.207-8.645-3.307-10.231-7.4-.1-.258-.97-2.756-.951-2.761a12.842,12.842,0,0,1,4.967-.705,10.952,10.952,0,0,1,4.709,1.6,11.065,11.065,0,0,1,5.059,8.4c-2.83-2.721-7-6.5-12.783-7.829a68.511,68.511,0,0,1,11.932,9.343c-4.568,5.011-8.081,7.21-11.484,9.705,4.576-1.259,11.163-4.6,14-8.4a22.839,22.839,0,0,1-.666,4.006,12.246,12.246,0,0,1-3.2,5.059,14.246,14.246,0,0,1-5.054,2.685c-3.308,1.133-5.518.551-8.873.273.907-3.717,1.77-6.54,4.409-9.4,2.1-2.273,4.964-4.421,8.172-4.566" fill="#ddf4f2"/>
    <path id="Path_35" data-name="Path 35" d="M1316.969,4738.24c-6.2-3.235-11.569-7.767-17.126-11.946-8.119-6.1-17.539-11.805-27.661-11.006-10.39.823-20.37,6.747-25.367,16.118-4.05,7.6-3.261,21.268-3.261,21.268s-5.65-8.828-7.678-11c-6.655-7.112-15.63-11.557-25.469-9.942-8.1,1.331-16.1,6.627-16.648,15.494-.578,9.4,9.184,22.328,19.183,15.706-1.381.916-5.629-.474-6.793-1.391-6.066-4.8-6.744-11.762-3.835-16.591,3.649-6.06,13.392-6.3,19.215-3.187,6.072,3.24,10.693,9.149,14.654,14.63a96.3,96.3,0,0,1,5.512,8.747c2.418,4.242,4.49,8.667,6.747,12.994,4.81,9.2,26.777,49.937,26.777,49.937-12.558-7.817-35.48-16.31-43.9,2.085-5.112,11.168,4.653,21.9,15.833,19.536,3.066-.647,5.014-2.84,6.615-5.508a8.85,8.85,0,0,0,1.3-6.381c-1.8,7.533-15.282,10.536-17.346,1.563-1.427-6.22,5.7-11.6,11.267-11.908,9.35-.526,18.872,6.285,24.887,12.867,22.944,25.107,14.958,59.286,2.4,87.079a284.163,284.163,0,0,1-52.982,79.23c8.389-4.823,18.422-3.771,27.6-3,12.627,1.058,22.226-1.362,34.118-5.183-2.989-4.723-3.171-10.495-3.113-15.9.232-20.974,9.464-40.149,14.713-60.03.01-.033.017-.068.027-.1,6.339-21.365,7.068-44.865.873-66.3a157.25,157.25,0,0,0-14.564-33.4c-5.091-8.982-10.349-17.889-15.1-27.056a170.249,170.249,0,0,1-7.953-17.481c-4.135-10.818-8.17-22.314-5.956-33.68s11.834-21.975,23.408-21.762c5.1.093,9.944,2.189,14.393,4.678,7.829,4.379,14.589,10.8,23.039,13.9,9.271,3.4,18.868,2.28,23.141.655C1330.717,4742.093,1323.439,4741.617,1316.969,4738.24Z" fill="#ddf4f2"/>
    <path id="Path_36" data-name="Path 36" d="M1331.9,4790.489a.886.886,0,1,1-.886-.886.887.887,0,0,1,.886.886" fill="#ddf4f2"/>
    <path id="Path_37" data-name="Path 37" d="M1321.324,4790.174a.886.886,0,1,1-.887-.888.887.887,0,0,1,.887.888" fill="#ddf4f2"/>
    <path id="Path_38" data-name="Path 38" d="M1450.85,4747.225c-.546-8.867-8.542-14.163-16.646-15.494-9.841-1.615-18.811,2.83-25.47,9.942-2.031,2.173-7.676,11-7.676,11s.788-13.671-3.262-21.268c-5-9.371-14.975-15.295-25.373-16.118-9.025-.714-17.433,3.766-24.6,8.784a34.833,34.833,0,0,1-14.256,6.152,15.943,15.943,0,0,1-7.9-.351c-1.84-.664-5.392-2.792-3.948-5.269.814-1.4,2.553-1.845,4.052-2.019a20.3,20.3,0,0,1,5.691.5,18.187,18.187,0,0,0-5.993-1.622c-2.155-.192-4.692-.095-6.483,1.283-3.33,2.562-.393,6.667,2.3,8.5,4.963,3.366,11.426,3.444,17.12,2.345,6.558-1.267,11.383-4.792,17.146-7.818a26.284,26.284,0,0,1,11.716-3.031c11.57-.213,21.2,10.4,23.41,21.762s-1.826,22.862-5.958,33.68a169.821,169.821,0,0,1-7.955,17.481c-4.757,9.167-10.012,18.074-15.1,27.056a177.847,177.847,0,0,0-10.289,21.264c.461-14.434-3.646-26.411-15.47-35.086a19.434,19.434,0,0,0-4.01-2.266,12.24,12.24,0,0,0,.479-8.99,8.983,8.983,0,0,0,1.19-1.7,6.274,6.274,0,0,0,1.675-10.295c.683-2.48.131-5.276-1.053-4.415-1.826,1.328-5.56,1.689-6.328,1.75a8.13,8.13,0,0,0-4.315,0c-.63-.048-4.493-.391-6.365-1.753-1.122-.816-1.677,1.651-1.153,4.021a6.262,6.262,0,0,0,1.8,10.653,8.948,8.948,0,0,0,1.96,2.479l-3.222,9.484a28.81,28.81,0,0,0-11.148,12.525c-6.514,13.588-4.783,24.794-2.566,38.972-.826-11.716,2.016-31.032,11.941-38.573,8.627-6.554,20.707-2.578,25.638,6.3,6.112,11,5.094,26.568,2.265,38.353-1.754,3.849-3.542,7.681-5.536,11.4-6.29,11.743-12.339,23.515-17.779,35.779a186.408,186.408,0,0,0-9.207,24.367,134.319,134.319,0,0,0-4.614,23.19c-2.188,17.971-1.7,37.356,19.838,41.175,9.148,1.622,19.5.848,28.752.383-4.688.237-13.315-21.426-14.717-25.047a113.476,113.476,0,0,1-7.141-31.178c-2.518-29.305,9.25-62.432,24.857-86.875,8.18-12.813,21.053-32.158,38.472-31.181,5.559.312,12.7,5.688,11.266,11.908-2.063,8.973-15.548,5.97-17.345-1.563a8.86,8.86,0,0,0,1.3,6.381c1.6,2.668,3.546,4.861,6.616,5.508,11.179,2.367,21.627-8.7,15.833-19.536-7.729-14.468-24.676-12.271-36.966-5.951-2.354,1.21-4.689,2.469-6.932,3.866,0,0,21.97-40.736,26.775-49.937,2.262-4.327,4.328-8.752,6.751-12.994a95.4,95.4,0,0,1,5.505-8.747c3.962-5.481,8.582-11.39,14.657-14.63,5.822-3.111,15.568-2.873,19.215,3.187,2.91,4.829,2.233,11.789-3.836,16.591-1.161.917-5.41,2.307-6.791,1.391C1441.673,4769.553,1451.43,4756.625,1450.85,4747.225Zm-135.573,42.8a4.83,4.83,0,1,1,4.83,4.83A4.828,4.828,0,0,1,1315.277,4790.029Zm11.275,3.753-1.237,2.224-.99-2.349Zm-12.785,22.329,15.289-16.579S1328.779,4811.046,1313.767,4816.111Zm12.33-25.889a4.829,4.829,0,1,1,4.829,4.83A4.829,4.829,0,0,1,1326.1,4790.222Z" fill="#ddf4f2"/>
  </g>
</svg>
