<?xml version="1.0" encoding="utf-8"?>
<!-- Generator: Adobe Illustrator 24.0.3, SVG Export Plug-In . SVG Version: 6.00 Build 0)  -->
<svg version="1.1" id="Layer_1" xmlns="http://www.w3.org/2000/svg" xmlns:xlink="http://www.w3.org/1999/xlink" x="0px" y="0px"
	 viewBox="0 0 34 34" style="enable-background:new 0 0 34 34;" xml:space="preserve">
<style type="text/css">
	.st0{fill-rule:evenodd;clip-rule:evenodd;fill:#FFFFFF;}
</style>
<g>
	<path class="st0" d="M22.9,9.9h-6h-6c-2.7,0-4.9,2.2-4.8,4.9c0,2.7,2.2,4.9,4.9,4.9h0.7l2.2,5.5l2.3-5.5h0.5v-2.2H15l-1.2,3l-1-3
		h-1.5c-1.5,0-2.7-1.3-2.7-2.7c0-1.5,1.3-2.7,2.7-2.7h5.4h5.4c1.5,0,2.7,1.3,2.7,2.7c0,1.5-1.3,2.7-2.7,2.7h-5.4v2.2h6
		c2.7,0,4.9-2.2,4.9-4.9C27.8,12.1,25.6,9.9,22.9,9.9z"/>
</g>
</svg>
