<?xml version="1.0" encoding="utf-8"?>
<!-- Generator: Adobe Illustrator 24.0.3, SVG Export Plug-In . SVG Version: 6.00 Build 0)  -->
<svg version="1.1" id="Layer_1" xmlns="http://www.w3.org/2000/svg" xmlns:xlink="http://www.w3.org/1999/xlink" x="0px" y="0px"
	 viewBox="0 0 34 34" style="enable-background:new 0 0 34 34;" xml:space="preserve">
<style type="text/css">
	.st0{fill-rule:evenodd;clip-rule:evenodd;fill:#FFFFFF;}
</style>
<g>
	<path class="st0" d="M25.4,14.9l-0.2-0.3L25,14.4c-0.4-0.3-1.9,0-2.3-0.4c-0.3-0.3-0.4-0.8-0.4-1.4c-0.2-1.3-0.3-1.3-0.4-1.8
		c-0.7-1.6-2.8-2.8-4.1-2.9H14c-2.9,0-5.4,2.4-5.4,5.4v6.3C8.6,22.5,11,25,14,25h6.2c2.9,0,5.4-2.4,5.4-5.4v-4.4v-0.3
		C25.6,14.9,25.4,14.9,25.4,14.9z M13.9,12.2h2.9c0.5,0,1.1,0.4,1.1,1c0,0.5-0.4,1.1-1.1,1.1h-2.9c-0.5,0-1.1-0.4-1.1-1.1
		C12.9,12.6,13.4,12.2,13.9,12.2z M20,20.4h-6.1c-0.5,0-1.1-0.4-1.1-1c0-0.5,0.4-1,1.1-1H20c0.5,0,1,0.4,1,1
		C21.1,19.9,20.5,20.4,20,20.4z"/>
</g>
</svg>
