<?xml version="1.0" encoding="utf-8"?>
<!-- Generator: Adobe Illustrator 24.0.3, SVG Export Plug-In . SVG Version: 6.00 Build 0)  -->
<svg version="1.1" id="Layer_1" xmlns="http://www.w3.org/2000/svg" xmlns:xlink="http://www.w3.org/1999/xlink" x="0px" y="0px"
	 viewBox="0 0 34 34" style="enable-background:new 0 0 34 34;" xml:space="preserve">
<style type="text/css">
	.st0{fill:#1877F2;}
	.st1{fill:#FFFFFF;}
</style>
<g>
	<g>
		<path class="st0" d="M32.4,29.4c0,1.6-1.4,3-3,3H4.6c-1.6,0-3-1.4-3-3V4.6c0-1.6,1.4-3,3-3h24.8c1.6,0,3,1.4,3,3V29.4z"/>
	</g>
	<path class="st1" d="M14.6,13.6V17h-3.9v4.5h3.9v10.9h4.8V21.5H23l0.7-4.5h-4.3v-2.9c0-1.2,0.6-2.4,2.5-2.4h1.9V7.9
		c0,0-1.8-0.3-3.4-0.3C16.9,7.6,14.6,9.7,14.6,13.6z"/>
</g>
</svg>
