<?xml version="1.0" encoding="utf-8"?>
<!-- Generator: Adobe Illustrator 24.0.3, SVG Export Plug-In . SVG Version: 6.00 Build 0)  -->
<svg version="1.1" id="Layer_1" xmlns="http://www.w3.org/2000/svg" xmlns:xlink="http://www.w3.org/1999/xlink" x="0px" y="0px"
	 viewBox="0 0 34 34" style="enable-background:new 0 0 34 34;" xml:space="preserve">
<style type="text/css">
	.st0{fill:#FFFFFF;}
</style>
<g>
	<g>
		<path class="st0" d="M21.7,11.3c-0.6,0-1.1,0.5-1.1,1.1s0.5,1.1,1.1,1.1s1.1-0.5,1.1-1.1S22.3,11.3,21.7,11.3z"/>
		<path class="st0" d="M17,12.7c-2.5,0-4.4,2-4.4,4.4s2,4.4,4.4,4.4c2.5,0,4.4-2,4.4-4.4S19.5,12.7,17,12.7z M17,20
			c-1.6,0-2.8-1.3-2.8-2.8c0-1.6,1.3-2.8,2.8-2.8c1.6,0,2.8,1.3,2.8,2.8C19.9,18.7,18.6,20,17,20z"/>
		<g>
			<path class="st0" d="M20.6,8h-7.2c-3,0-5.4,2.4-5.4,5.4v7.2c0,3,2.4,5.4,5.4,5.4h7.2c3,0,5.4-2.4,5.4-5.4v-7.2
				C26,10.4,23.6,8,20.6,8z M24.3,20.6c0,2.1-1.7,3.7-3.7,3.7h-7.2c-2.1,0-3.7-1.7-3.7-3.7v-7.2c0-2.1,1.7-3.7,3.7-3.7h7.2
				c2.1,0,3.7,1.7,3.7,3.7V20.6z"/>
		</g>
	</g>
</g>
</svg>
