<?xml version="1.0" encoding="utf-8"?>
<!-- Generator: Adobe Illustrator 24.0.3, SVG Export Plug-In . SVG Version: 6.00 Build 0)  -->
<svg version="1.1" id="Layer_1" xmlns="http://www.w3.org/2000/svg" xmlns:xlink="http://www.w3.org/1999/xlink" x="0px" y="0px"
	 viewBox="0 0 34 34" style="enable-background:new 0 0 34 34;" xml:space="preserve">
<style type="text/css">
	.st0{fill:#FFFFFF;}
</style>
<g>
	<g>
		<g>
			<path class="st0" d="M18.4,22.1c-1.3-0.1-1.8-0.7-2.8-1.3c-0.4,2.3-1,4.6-2.2,6.1c-0.4,0.4-1.1,0.2-1.1-0.4
				c-0.2-3.7,1.1-6.7,1.7-9.8c-1.2-2,0.1-6.1,2.7-5.1c3.1,1.2-2.7,7.5,1.2,8.3c4.1,0.8,5.7-7,3.2-9.6c-3.6-3.7-10.6-0.1-9.7,5.2
				c0.2,1,1,1.5,0.9,2.5c-0.1,0.6-0.7,1-1.3,0.7c-1.6-0.8-2.1-2.4-2-4.5c0-4,3.5-6.8,7-7.2c4.4-0.5,8.5,1.6,9.1,5.7
				C25.7,17.4,23,22.4,18.4,22.1L18.4,22.1z"/>
		</g>
	</g>
</g>
</svg>
