<svg xmlns="http://www.w3.org/2000/svg" width="226.151" height="173.841" viewBox="0 0 226.151 173.841">
  <g id="Group_11" data-name="Group 11" transform="translate(-201.028 -62.258)">
    <g id="Group_9" data-name="Group 9">
      <g id="Group_8" data-name="Group 8">
        <path id="Path_41" data-name="Path 41" d="M201.31,235.66V217.4h6.962a4.334,4.334,0,0,1,2,.425A3.5,3.5,0,0,1,211.6,219a5.05,5.05,0,0,1,.718,1.655,8.227,8.227,0,0,1,.219,1.936,7.5,7.5,0,0,1-.4,2.471,3.957,3.957,0,0,1-1.3,1.862,4.541,4.541,0,0,1-1.692.839,8.253,8.253,0,0,1-2.13.256h-2.288v7.643Zm3.408-10.321h1.826a2.479,2.479,0,0,0,1.85-.645,3.093,3.093,0,0,0,.633-2.2,2.408,2.408,0,0,0-.6-1.947,3.662,3.662,0,0,0-2.154-.463h-1.558Z" fill="#fff"/>
        <path id="Path_42" data-name="Path 42" d="M214.748,235.66V217.4h9.591v2.677h-6.183v4.6h5.7v2.678h-5.7v5.623h6.183v2.677Z" fill="#fff"/>
        <path id="Path_43" data-name="Path 43" d="M227.114,235.66V217.4h7.109a4.226,4.226,0,0,1,.8.085,3.436,3.436,0,0,1,.876.3,4.287,4.287,0,0,1,1.85,1.68,6.266,6.266,0,0,1,.779,2.4,28.034,28.034,0,0,1,.219,3.906q0,1.827-.061,3.068a16.644,16.644,0,0,1-.316,2.495,7.313,7.313,0,0,1-.84,2.252,4.351,4.351,0,0,1-1.583,1.582,3.274,3.274,0,0,1-1.119.39,9.045,9.045,0,0,1-1.412.1Zm4.893-2.677a3.867,3.867,0,0,0,1.789-.341,2.106,2.106,0,0,0,.962-1.1,6.367,6.367,0,0,0,.4-1.984q.086-1.229.086-3.469a15.01,15.01,0,0,0-.5-4.686,1.931,1.931,0,0,0-1.983-1.327h-2.24v12.9Z" fill="#fff"/>
        <path id="Path_44" data-name="Path 44" d="M241.914,235.66V217.4h3.408V235.66Z" fill="#fff"/>
        <path id="Path_45" data-name="Path 45" d="M247.221,235.66l4.358-18.256h4.6l4.139,18.256h-3.652l-.9-4.624h-3.992l-.9,4.624Zm5.088-7.3h2.921l-.925-5.185q-.146-.681-.292-2.069l-.049-.463q-.024-.462-.122-1.217h-.048q-.1.755-.122,1.217l-.049.463q-.146,1.388-.292,2.069Z" fill="#fff"/>
        <path id="Path_46" data-name="Path 46" d="M259.612,217.4H270.98v2.677h-3.968V235.66H263.6V220.081h-3.992Z" fill="#fff"/>
        <path id="Path_47" data-name="Path 47" d="M276.384,227.8v7.862h-3.407V217.4h6.45a9.276,9.276,0,0,1,2.106.219,4.4,4.4,0,0,1,1.631.73,3.327,3.327,0,0,1,1.071,1.363,5.089,5.089,0,0,1,.377,2.069,9.367,9.367,0,0,1-.121,1.546,4.5,4.5,0,0,1-.438,1.327,2.89,2.89,0,0,1-.865,1.01,3.038,3.038,0,0,1-1.375.524v.048a2.8,2.8,0,0,1,2.033,1.047,3.88,3.88,0,0,1,.6,2.264q0,1.121.024,1.984t.1,1.679a8.738,8.738,0,0,0,.219,1.388,1.149,1.149,0,0,0,.389.718v.34h-3.748a6.141,6.141,0,0,1-.28-1.606q-.062-.974-.086-2.312v-.853q-.024-.632-.048-1.01a3.757,3.757,0,0,0-.134-.766,1.716,1.716,0,0,0-.353-.67,1.364,1.364,0,0,0-.633-.4,4.761,4.761,0,0,0-1.168-.206q-.634-.038-1.729-.037Zm0-2.678h2.678a1.953,1.953,0,0,0,1.449-.693,2.93,2.93,0,0,0,.547-1.936,2.588,2.588,0,0,0-.523-1.911,2.434,2.434,0,0,0-1.619-.5h-2.532Z" fill="#fff"/>
        <path id="Path_48" data-name="Path 48" d="M287.923,235.66V217.4h3.408V235.66Z" fill="#fff"/>
        <path id="Path_49" data-name="Path 49" d="M305.474,229.161c0,.049-.008.219-.024.511-.032.293-.049.472-.049.536a11.727,11.727,0,0,1-.353,2.385,5.388,5.388,0,0,1-.864,1.838,3.871,3.871,0,0,1-1.534,1.229,5.543,5.543,0,0,1-2.336.439,7.284,7.284,0,0,1-3.238-.609,3.986,3.986,0,0,1-1.8-1.7,7.055,7.055,0,0,1-.755-2.519,31.074,31.074,0,0,1-.17-3.591v-2.6a32.656,32.656,0,0,1,.268-3.469,7.172,7.172,0,0,1,.766-2.41,3.864,3.864,0,0,1,1.765-1.643,7.239,7.239,0,0,1,3.165-.585q4.625.074,4.99,4.723a13.7,13.7,0,0,1,.073,1.388h-3.359q-.025-.147-.049-.585c-.033-.438-.074-.791-.121-1.058a4.647,4.647,0,0,0-.232-.816,1.484,1.484,0,0,0-.474-.658,1.331,1.331,0,0,0-.828-.243,2.142,2.142,0,0,0-1.327.378,2.228,2.228,0,0,0-.742,1.022,5.432,5.432,0,0,0-.317,1.412q-.074.767-.073,1.789v5.063a12.094,12.094,0,0,0,.073,1.388,4.625,4.625,0,0,0,.317,1.229,2.268,2.268,0,0,0,.742.974,2.148,2.148,0,0,0,1.327.377,1.221,1.221,0,0,0,.924-.353,2.208,2.208,0,0,0,.512-.9,5.348,5.348,0,0,0,.219-1.12q.048-.572.049-1.254c.016-.259.024-.446.024-.56Z" fill="#fff"/>
        <path id="Path_50" data-name="Path 50" d="M314.383,235.66V217.4h7.109a4.218,4.218,0,0,1,.8.085,3.443,3.443,0,0,1,.877.3,4.274,4.274,0,0,1,1.849,1.68,6.248,6.248,0,0,1,.78,2.4,28.056,28.056,0,0,1,.218,3.906q0,1.827-.06,3.068a16.393,16.393,0,0,1-.317,2.495,7.263,7.263,0,0,1-.84,2.252,4.348,4.348,0,0,1-1.582,1.582,3.281,3.281,0,0,1-1.119.39,9.055,9.055,0,0,1-1.412.1Zm4.893-2.677a3.865,3.865,0,0,0,1.79-.341,2.1,2.1,0,0,0,.961-1.1,6.364,6.364,0,0,0,.4-1.984q.086-1.229.086-3.469a15.042,15.042,0,0,0-.5-4.686,1.932,1.932,0,0,0-1.984-1.327h-2.24v12.9Z" fill="#fff"/>
        <path id="Path_51" data-name="Path 51" d="M329.063,235.66V217.4h9.591v2.677H332.47v4.6h5.7v2.678h-5.7v5.623h6.184v2.677Z" fill="#fff"/>
        <path id="Path_52" data-name="Path 52" d="M349.486,217.4h3.409V235.66h-3.554l-2.654-6.5q-.656-1.581-1.229-3.3t-1.205-3.956H344.2q.121,1.631.207,2.812t.158,2.4q.1,1.584.134,2.861t.037,2.252v3.431h-3.408V217.4h3.529l2.653,6.645q.682,1.632,1.255,3.347t1.18,3.908H350q-.219-2.946-.341-5.186-.17-3.067-.171-5.136Z" fill="#fff"/>
        <path id="Path_53" data-name="Path 53" d="M354.963,217.4h11.369v2.677h-3.968V235.66h-3.409V220.081h-3.992Z" fill="#fff"/>
        <path id="Path_54" data-name="Path 54" d="M368.4,235.66V217.4h3.408V235.66Z" fill="#fff"/>
        <path id="Path_55" data-name="Path 55" d="M382.107,222.953a5.841,5.841,0,0,0-.391-2.409,1.591,1.591,0,0,0-1.606-.828,2.121,2.121,0,0,0-1.387.4,1.594,1.594,0,0,0-.487,1.3,2.048,2.048,0,0,0,.45,1.424A7.7,7.7,0,0,0,380.135,224l.048.024q.609.389,1.12.73t1.047.719q.534.377,1.083.79a8.644,8.644,0,0,1,.888.755,4.833,4.833,0,0,1,1.192,1.716,5.862,5.862,0,0,1,.342,2.106,4.94,4.94,0,0,1-1.534,3.895,5.928,5.928,0,0,1-4.09,1.363,7.274,7.274,0,0,1-2.555-.4,4.312,4.312,0,0,1-1.729-1.131,4.5,4.5,0,0,1-.961-1.741,7.885,7.885,0,0,1-.3-2.276V229.21h3.408v1.071a4.269,4.269,0,0,0,.5,2.288,1.8,1.8,0,0,0,1.643.779,1.883,1.883,0,0,0,2.119-2.142,2.657,2.657,0,0,0-.341-1.363,3.283,3.283,0,0,0-1.023-1.047q-.584-.462-1.85-1.29-1.315-.852-2.1-1.485a8.88,8.88,0,0,1-1.425-1.436,4.894,4.894,0,0,1-.876-2.8,4.632,4.632,0,0,1,1.339-3.591,5.769,5.769,0,0,1,4.016-1.229,6.249,6.249,0,0,1,2.958.6,3.86,3.86,0,0,1,1.607,1.5,5.136,5.136,0,0,1,.62,1.778,14.042,14.042,0,0,1,.122,1.923v.194Z" fill="#fff"/>
        <path id="Path_56" data-name="Path 56" d="M387.437,217.4H398.8v2.677h-3.967V235.66h-3.409V220.081h-3.992Z" fill="#fff"/>
        <path id="Path_57" data-name="Path 57" d="M404.21,227.8v7.862H400.8V217.4h6.451a9.3,9.3,0,0,1,2.107.219,4.4,4.4,0,0,1,1.63.73,3.319,3.319,0,0,1,1.071,1.363,5.088,5.088,0,0,1,.378,2.069,9.259,9.259,0,0,1-.122,1.546,4.505,4.505,0,0,1-.439,1.327,2.885,2.885,0,0,1-.863,1.01,3.043,3.043,0,0,1-1.376.524v.048a2.8,2.8,0,0,1,2.033,1.047,3.88,3.88,0,0,1,.6,2.264q0,1.121.024,1.984t.1,1.679a8.968,8.968,0,0,0,.219,1.388,1.145,1.145,0,0,0,.39.718v.34h-3.75a6.271,6.271,0,0,1-.28-1.606q-.06-.974-.084-2.312v-.853c-.016-.421-.034-.758-.049-1.01a3.689,3.689,0,0,0-.134-.766,1.715,1.715,0,0,0-.353-.67,1.363,1.363,0,0,0-.633-.4,4.761,4.761,0,0,0-1.169-.206q-.633-.038-1.729-.037Zm0-2.678h2.678a1.953,1.953,0,0,0,1.448-.693,2.93,2.93,0,0,0,.548-1.936,2.588,2.588,0,0,0-.524-1.911,2.434,2.434,0,0,0-1.619-.5H404.21Z" fill="#fff"/>
        <path id="Path_58" data-name="Path 58" d="M419.57,222.2a12.646,12.646,0,0,1,.8,2.8h.048a9.78,9.78,0,0,1,.365-1.5q.219-.645.609-1.619c.065-.146.113-.26.146-.341l1.63-4.138H426.9l-4.82,10.492v7.764h-3.409V227.9L413.923,217.4h3.724Z" fill="#fff"/>
      </g>
    </g>
    <g id="Group_10" data-name="Group 10">
      <path id="Path_59" data-name="Path 59" d="M216.945,185.62c-.346.058-.81.123-1.388.194a7.593,7.593,0,0,0-1.886.522,9.571,9.571,0,0,0-2.126,1.237,10.042,10.042,0,0,0-2.148,2.3q-1.431,2.037-.759,3.3t3.58,2.515a27.781,27.781,0,0,0,3.1,1.063,13.443,13.443,0,0,1,3.036,1.258,7.925,7.925,0,0,1,2.453,2.213A8.492,8.492,0,0,1,222.2,204.1a4.458,4.458,0,0,1-.675,3.255,7.476,7.476,0,0,1-2.493,2.235,12.24,12.24,0,0,1-3.45,1.3,16.407,16.407,0,0,1-3.492.411,15.064,15.064,0,0,1-5.6-.844,12.932,12.932,0,0,1-3.644-2.018,5.107,5.107,0,0,1-1.69-2.191c-.234-.709-.146-1.178.259-1.409a1.323,1.323,0,0,1,1.063,0c.448.143,1,.339,1.648.584s1.388.485,2.213.716a11.408,11.408,0,0,0,2.776.391,14.507,14.507,0,0,0,3.383-.346,15.3,15.3,0,0,0,4.015-1.563,1.745,1.745,0,0,0,.931-1.238,2.42,2.42,0,0,0-.367-1.69,5.173,5.173,0,0,0-1.759-1.671,10.072,10.072,0,0,0-3.232-1.214q-1.734-.389-3.4-.825a11.969,11.969,0,0,1-3.015-1.213,7.039,7.039,0,0,1-2.213-2,6.249,6.249,0,0,1-1.04-3.125,5.854,5.854,0,0,1,.78-2.993,17.27,17.27,0,0,1,2.279-3.339,21.564,21.564,0,0,1,3.23-3.059,14.185,14.185,0,0,1,3.667-2.1,6.816,6.816,0,0,1,3.493-.435,4.119,4.119,0,0,1,2.775,1.908,7.839,7.839,0,0,0,1.626,1.844c.594.479,1.113.876,1.563,1.194a4.179,4.179,0,0,1,.955.869q.28.39-.153.867a1.124,1.124,0,0,1-1.041.369,6.346,6.346,0,0,1-1.279-.415c-.479-.2-1-.394-1.562-.583A3.939,3.939,0,0,0,216.945,185.62Z" fill="#fff"/>
      <path id="Path_60" data-name="Path 60" d="M227.009,179.677a.951.951,0,0,1,.912-.868,2.939,2.939,0,0,1,1.648.346,5.6,5.6,0,0,1,1.6,1.237,2.759,2.759,0,0,1,.783,1.758c.027.665.056,1.344.083,2.039s.059,1.316.089,1.864q.042,1,.087,1.866a21,21,0,0,1,2.6-.087,7.976,7.976,0,0,1,1.779.26q.78.218.781.782a1.242,1.242,0,0,1-.76,1.041,8.79,8.79,0,0,1-1.714.736,23.1,23.1,0,0,1-2.516.609q.085,2.906.174,5.639.042,2.385.021,4.99t-.195,4.555a9,9,0,0,1-.674,2.862,2.39,2.39,0,0,1-1.019,1.171,1.717,1.717,0,0,1-1.17.109,7.756,7.756,0,0,1-1.127-.368q-.264-.087-.478-.912a14.21,14.21,0,0,1-.347-2.125q-.131-1.3-.218-2.929t-.129-3.319q-.132-3.99-.13-8.937a10.04,10.04,0,0,1-2.169.262,4.433,4.433,0,0,1-1.606-.284,1.392,1.392,0,0,1-.911-1.061,1.038,1.038,0,0,1,.543-1.086,7.35,7.35,0,0,1,1.54-.823,16.269,16.269,0,0,1,2.341-.694v-.7c0-.2.007-.411.023-.628s.021-.4.021-.542c0-1.155-.015-2.1-.044-2.819s-.042-1.325-.042-1.8.012-.867.042-1.171A6.47,6.47,0,0,1,227.009,179.677Z" fill="#fff"/>
      <path id="Path_61" data-name="Path 61" d="M248.745,192.561a1.491,1.491,0,0,1-.737.933c-.406.245-.867.5-1.389.759s-1.057.549-1.6.867a4.445,4.445,0,0,0-1.39,1.258,7.93,7.93,0,0,0-1.213,2.992,15.7,15.7,0,0,0-.328,3.321,9.489,9.489,0,0,0,.39,2.732c.248.767.558,1.149.934,1.149a2.281,2.281,0,0,0,1.452-.65,8.506,8.506,0,0,0,1.368-1.5,9.573,9.573,0,0,0,1-1.735,3.74,3.74,0,0,0,.393-1.367c0-.317-.015-.759-.044-1.323a13.265,13.265,0,0,1,.021-1.67,6.509,6.509,0,0,1,.26-1.432q.2-.606.674-.652a7.432,7.432,0,0,0,1.15-.216,2.776,2.776,0,0,1,1.28-.044,1.456,1.456,0,0,1,.973.847,5.157,5.157,0,0,1,.284,2.45,19.375,19.375,0,0,0,.347,5.316,2.553,2.553,0,0,0,1.866,2.1,2.009,2.009,0,0,0,1.714-.455,9.207,9.207,0,0,0,1.367-1.409c.4-.523.751-.993,1.04-1.41s.521-.586.692-.5q.306.128.219,1.084a6.5,6.5,0,0,1-.652,2.146,9.534,9.534,0,0,1-1.67,2.388,7.281,7.281,0,0,1-2.84,1.843,4.791,4.791,0,0,1-1.693.347,4.329,4.329,0,0,1-1.41-.216,3.582,3.582,0,0,1-1.106-.609,6.08,6.08,0,0,1-.868-.867,8.4,8.4,0,0,1-1.387-2.691,5.564,5.564,0,0,1-1.215,1.823,7.006,7.006,0,0,1-1.691,1.28,5.864,5.864,0,0,1-2.56.673,4.5,4.5,0,0,1-2.865-.955,7,7,0,0,1-2.147-2.69,9.766,9.766,0,0,1-.869-3.926,11.3,11.3,0,0,1,.977-4.706,8.671,8.671,0,0,1,1.824-2.734,11.037,11.037,0,0,1,2.406-1.844,10.567,10.567,0,0,1,2.56-1.041,11.48,11.48,0,0,1,2.3-.368,5,5,0,0,1,1.65.153C248.621,192.148,248.8,192.33,248.745,192.561Z" fill="#fff"/>
      <path id="Path_62" data-name="Path 62" d="M258.417,179.677a.953.953,0,0,1,.913-.868,2.939,2.939,0,0,1,1.648.346,5.593,5.593,0,0,1,1.6,1.237,2.759,2.759,0,0,1,.783,1.758q.041,1,.085,2.039c.028.693.059,1.316.087,1.864q.045,1,.087,1.866a21.005,21.005,0,0,1,2.6-.087,7.95,7.95,0,0,1,1.779.26c.522.145.781.406.781.782a1.239,1.239,0,0,1-.759,1.041,8.817,8.817,0,0,1-1.714.736,23.133,23.133,0,0,1-2.515.609q.084,2.906.173,5.639.042,2.385.021,4.99t-.194,4.555a9.055,9.055,0,0,1-.674,2.862,2.382,2.382,0,0,1-1.02,1.171,1.719,1.719,0,0,1-1.171.109,7.991,7.991,0,0,1-1.129-.368q-.26-.087-.475-.912a14.313,14.313,0,0,1-.349-2.125q-.129-1.3-.216-2.929t-.129-3.319q-.13-3.99-.13-8.937a10.033,10.033,0,0,1-2.169.262,4.429,4.429,0,0,1-1.606-.284,1.392,1.392,0,0,1-.911-1.061,1.038,1.038,0,0,1,.543-1.086A7.443,7.443,0,0,1,255.9,189a16.285,16.285,0,0,1,2.342-.694v-.7c0-.2.007-.411.021-.628s.022-.4.022-.542c0-1.155-.014-2.1-.043-2.819s-.042-1.325-.042-1.8.013-.867.042-1.171A6.726,6.726,0,0,1,258.417,179.677Z" fill="#fff"/>
      <path id="Path_63" data-name="Path 63" d="M270.348,194.339a6.879,6.879,0,0,1,1.605-2.039,9.023,9.023,0,0,1,2.191-1.409,11.289,11.289,0,0,1,2.515-.8,13.412,13.412,0,0,1,2.581-.261,3.852,3.852,0,0,1,2.235.846,4.1,4.1,0,0,1,1.323,1.953,5.577,5.577,0,0,1,.152,2.667,7.406,7.406,0,0,1-1.279,2.993,8.756,8.756,0,0,1-2.408,2.474,10.181,10.181,0,0,1-2.365,1.171,6.778,6.778,0,0,1-2.473.39,8.258,8.258,0,0,0,.349,2.821,6.189,6.189,0,0,0,.411.975,2.774,2.774,0,0,0,.629.8,2.311,2.311,0,0,0,.954.5,3,3,0,0,0,1.3.022,4.853,4.853,0,0,0,2.537-1.15,11.431,11.431,0,0,0,1.627-1.8c.433-.609.789-1.134,1.063-1.584s.543-.614.8-.5q.477.217.5,1.086a5.557,5.557,0,0,1-.413,2.038,11.119,11.119,0,0,1-1.278,2.408,7.84,7.84,0,0,1-2.148,2.1,8.1,8.1,0,0,1-2.994,1.194,7.733,7.733,0,0,1-3.773-.325,6.684,6.684,0,0,1-2.822-1.65,8.494,8.494,0,0,1-1.778-2.6,11.465,11.465,0,0,1-.868-3.166,15.336,15.336,0,0,1-.065-3.363,14.349,14.349,0,0,1,.652-3.188A10.34,10.34,0,0,1,270.348,194.339Zm4.035,4.729a6.522,6.522,0,0,0,1.257-.347,7.333,7.333,0,0,0,1.324-.651,9.37,9.37,0,0,0,1.541-1.215,4.1,4.1,0,0,0,1.387-2.6,2.081,2.081,0,0,0-.174-1.041,2.476,2.476,0,0,0-1.3,0,4.585,4.585,0,0,0-1.345.694,6.6,6.6,0,0,0-1.517,1.647,7.657,7.657,0,0,0-.869,1.542,6.968,6.968,0,0,0-.345,1.106A1.66,1.66,0,0,0,274.383,199.068Z" fill="#fff"/>
      <path id="Path_64" data-name="Path 64" d="M286.789,195.077a2.825,2.825,0,0,1,.76-.8,7.718,7.718,0,0,1,1.042-.651,5.614,5.614,0,0,1,1.084-.434,3.451,3.451,0,0,1,.889-.153c.115,0,.208.118.281.348a8.591,8.591,0,0,1,.218.912,10.463,10.463,0,0,1,.152,1.278c.028.477.056.963.087,1.454q.086,1.735.043,3.947.564-1.126,1.213-2.212.564-.911,1.3-1.887a11.553,11.553,0,0,1,1.52-1.67,5.41,5.41,0,0,1,1.626-1,4.086,4.086,0,0,1,1.8-.281,3.394,3.394,0,0,1,1.758.672,5.229,5.229,0,0,1,1.495,1.822,7.056,7.056,0,0,1,.652,2.06c.144.825.252,1.691.325,2.6s.145,1.83.218,2.755a16.161,16.161,0,0,0,.39,2.56,6.967,6.967,0,0,0,.78,1.994,2.2,2.2,0,0,0,1.454,1.043,2.915,2.915,0,0,0,1.539.021,7.626,7.626,0,0,0,1.433-.52q.67-.326,1.171-.565c.332-.158.569-.2.715-.109q.176.174-.194.957a5.747,5.747,0,0,1-1.216,1.6,7.479,7.479,0,0,1-2.126,1.411,5.28,5.28,0,0,1-2.926.367,5.771,5.771,0,0,1-4.687-3.362,19.571,19.571,0,0,1-1.647-7.655,8.587,8.587,0,0,0-.412-2.518c-.218-.55-.5-.838-.847-.867a1.668,1.668,0,0,0-1.192.585,10.346,10.346,0,0,0-1.454,1.8,10.607,10.607,0,0,0-1.345,2.69,14.177,14.177,0,0,0-.586,2.517c-.1.779-.166,1.474-.2,2.081a4.412,4.412,0,0,1-.218,1.347,1.245,1.245,0,0,1-.909.648,6.155,6.155,0,0,1-1.5.174,6.971,6.971,0,0,1-1.562-.174,2.549,2.549,0,0,1-1.062-.432,2.723,2.723,0,0,1-.282-1.237q-.109-1.063-.153-2.559t-.021-3.211c.014-1.141.044-2.228.086-3.254s.11-1.915.2-2.667A4.619,4.619,0,0,1,286.789,195.077Z" fill="#fff"/>
      <path id="Path_65" data-name="Path 65" d="M328.565,197.241a21.759,21.759,0,0,1-.043,3.045q-.129,1.779-.39,3.709t-.651,3.815a32.974,32.974,0,0,1-.847,3.311,12.283,12.283,0,0,1-.93,2.277q-.48.849-.912.69c-.377-.106-.681-.559-.911-1.351a21.087,21.087,0,0,1-.586-2.887q-.24-1.7-.346-3.709t-.175-3.841q-.063-1.826-.106-3.284c-.031-.973-.06-1.651-.088-2.04q-.132-1.162-.219-2.808t-.106-3.415q-.025-1.776,0-3.551c.012-1.183.042-2.242.084-3.178s.1-1.687.153-2.252.13-.829.218-.793a4,4,0,0,1,3.188,1.933,13.091,13.091,0,0,1,1.713,4.239,30.857,30.857,0,0,1,.716,5.191Q328.479,195.069,328.565,197.241Z" fill="#fff"/>
      <path id="Path_66" data-name="Path 66" d="M343.707,189.785a.413.413,0,0,1-.044.541,2.667,2.667,0,0,1-.627.392q-.414.193-.934.476a3.886,3.886,0,0,0-1,.8,4.331,4.331,0,0,0-.8,1.344,5.741,5.741,0,0,0-.326,2.085,4.719,4.719,0,0,0,.586,2.429,13.994,13.994,0,0,0,1.54,2.277A27.943,27.943,0,0,0,344.1,202.3a22.5,22.5,0,0,1,1.955,2.169,10.4,10.4,0,0,1,1.364,2.255,4.316,4.316,0,0,1,.327,2.367,3.241,3.241,0,0,1-1.366,2.059,8.525,8.525,0,0,1-2.8,1.3,14.555,14.555,0,0,1-3.557.5,15.131,15.131,0,0,1-3.58-.326,8.791,8.791,0,0,1-2.883-1.15,3.288,3.288,0,0,1-1.52-2,7.3,7.3,0,0,1-.281-2.994,5.158,5.158,0,0,1,.715-2.017,4.532,4.532,0,0,1,1.171-1.259,12.446,12.446,0,0,1,1.128-.715q1-.562,1.323,0t-.411,1.779a1.829,1.829,0,0,0-.175,1.367,3.116,3.116,0,0,0,.8,1.431,5.811,5.811,0,0,0,5.424,1.518,3.423,3.423,0,0,0,1.323-.606,1.633,1.633,0,0,0,.627-1,1.712,1.712,0,0,0-.455-1.323,12.461,12.461,0,0,0-1.952-1.865q-1.386-1.129-2.841-2.495a20.077,20.077,0,0,1-2.561-2.908,5.281,5.281,0,0,1-1.105-3.1,7.4,7.4,0,0,1,1.105-4.51,5.517,5.517,0,0,1,3.58-1.866,10.2,10.2,0,0,1,2-.2,3.9,3.9,0,0,1,1.235.2,1.739,1.739,0,0,1,.675.412A3.087,3.087,0,0,1,343.707,189.785Z" fill="#fff"/>
      <path id="Path_67" data-name="Path 67" d="M361.622,184.665a25.127,25.127,0,0,1-.605,3.73,32.029,32.029,0,0,1-1.02,3.384,32.691,32.691,0,0,1-1.279,3.038q-.7,1.431-1.39,2.6a33.01,33.01,0,0,1-3.642,5.032,3.117,3.117,0,0,0,.128.781,5.834,5.834,0,0,0,.349,1.064,9.376,9.376,0,0,0,.824,1.5,4.977,4.977,0,0,0,2.493,2.277,4.369,4.369,0,0,0,2.647.086,5.588,5.588,0,0,0,3.536-3.188,3.235,3.235,0,0,1,.694-1.3c.231-.2.44-.252.629-.151a1.039,1.039,0,0,1,.434.63,2.732,2.732,0,0,1,.107,1.039,13.364,13.364,0,0,1-1.864,3.427,9.039,9.039,0,0,1-1.129,1.258,8.876,8.876,0,0,1-1.431,1.086,7.429,7.429,0,0,1-1.713.758,6.093,6.093,0,0,1-2.017.239,8.038,8.038,0,0,1-4.621-1.345,9.887,9.887,0,0,1-2.972-3.34,15.1,15.1,0,0,1-1.6-4.619,33.076,33.076,0,0,1-.544-5.228,36.763,36.763,0,0,1,.216-5.1q.282-2.45.673-4.273a27.368,27.368,0,0,1,1.15-3.775,13.723,13.723,0,0,1,1.779-3.295,8.079,8.079,0,0,1,2.515-2.258,5.525,5.525,0,0,1,3.407-.607,5.42,5.42,0,0,1,2.471,1,5,5,0,0,1,1.475,1.974A6.569,6.569,0,0,1,361.622,184.665Zm-8.372,13.969q1.128-1.864,2.083-3.86.822-1.693,1.6-3.71a21.315,21.315,0,0,0,1.129-3.968q.173-.955.324-1.954a10.691,10.691,0,0,0,.131-1.843,3.266,3.266,0,0,0-.326-1.433,1.224,1.224,0,0,0-1-.672,1.958,1.958,0,0,0-1.627.629,5.753,5.753,0,0,0-1.215,1.995,15.808,15.808,0,0,0-.8,3.038,35.345,35.345,0,0,0-.434,3.731q-.132,1.974-.088,4.056T353.25,198.634Z" fill="#fff"/>
      <path id="Path_68" data-name="Path 68" d="M374.941,192.561a1.478,1.478,0,0,1-.737.933q-.606.367-1.388.759t-1.6.867a4.424,4.424,0,0,0-1.39,1.258,7.963,7.963,0,0,0-1.214,2.992,15.828,15.828,0,0,0-.325,3.321,9.386,9.386,0,0,0,.39,2.732q.369,1.15.934,1.149a2.285,2.285,0,0,0,1.451-.65,8.425,8.425,0,0,0,1.367-1.5,9.655,9.655,0,0,0,1-1.735,3.791,3.791,0,0,0,.388-1.367c0-.317-.013-.759-.042-1.323a12.554,12.554,0,0,1,.021-1.67,6.45,6.45,0,0,1,.26-1.432c.131-.4.354-.622.674-.652a7.4,7.4,0,0,0,1.149-.216,2.773,2.773,0,0,1,1.279-.044,1.463,1.463,0,0,1,.976.847,5.214,5.214,0,0,1,.282,2.45,19.415,19.415,0,0,0,.347,5.316,2.553,2.553,0,0,0,1.865,2.1,2.007,2.007,0,0,0,1.714-.455,9.023,9.023,0,0,0,1.367-1.409c.406-.523.751-.993,1.042-1.41s.52-.586.693-.5c.2.085.275.447.216,1.084a6.515,6.515,0,0,1-.649,2.146,9.587,9.587,0,0,1-1.67,2.388,7.289,7.289,0,0,1-2.844,1.843,4.768,4.768,0,0,1-1.69.347,4.321,4.321,0,0,1-1.41-.216,3.587,3.587,0,0,1-1.107-.609,6.349,6.349,0,0,1-.868-.867,8.4,8.4,0,0,1-1.386-2.691,5.6,5.6,0,0,1-1.216,1.823,6.961,6.961,0,0,1-1.693,1.28,5.833,5.833,0,0,1-2.558.673,4.5,4.5,0,0,1-2.865-.955,7.007,7.007,0,0,1-2.146-2.69,9.733,9.733,0,0,1-.868-3.926,11.279,11.279,0,0,1,.977-4.706,8.68,8.68,0,0,1,1.821-2.734,11.1,11.1,0,0,1,2.408-1.844,10.551,10.551,0,0,1,2.56-1.041,11.482,11.482,0,0,1,2.3-.368,4.991,4.991,0,0,1,1.65.153C374.817,192.148,375,192.33,374.941,192.561Z" fill="#fff"/>
      <path id="Path_69" data-name="Path 69" d="M384.052,195.077a2.844,2.844,0,0,1,.761-.8,7.689,7.689,0,0,1,1.039-.651,5.657,5.657,0,0,1,1.086-.434,3.458,3.458,0,0,1,.89-.153c.114,0,.208.118.28.348a8.84,8.84,0,0,1,.218.912,10.281,10.281,0,0,1,.151,1.278c.029.477.058.963.088,1.454.057,1.157.069,2.473.044,3.947q.563-1.126,1.212-2.212.565-.911,1.3-1.887a11.612,11.612,0,0,1,1.52-1.67,5.41,5.41,0,0,1,1.626-1,4.086,4.086,0,0,1,1.8-.281,3.384,3.384,0,0,1,1.758.672,5.21,5.21,0,0,1,1.5,1.822,7.057,7.057,0,0,1,.651,2.06c.145.825.254,1.691.327,2.6s.143,1.83.216,2.755a16.281,16.281,0,0,0,.39,2.56,7,7,0,0,0,.781,1.994,2.19,2.19,0,0,0,1.454,1.043,2.915,2.915,0,0,0,1.539.021,7.591,7.591,0,0,0,1.432-.52l1.171-.565c.331-.158.571-.2.715-.109q.174.174-.193.957a5.766,5.766,0,0,1-1.216,1.6,7.5,7.5,0,0,1-2.125,1.411,5.289,5.289,0,0,1-2.929.367,5.762,5.762,0,0,1-4.684-3.362,19.6,19.6,0,0,1-1.651-7.655,8.459,8.459,0,0,0-.411-2.518c-.216-.55-.5-.838-.846-.867a1.674,1.674,0,0,0-1.193.585,10.585,10.585,0,0,0-1.454,1.8,10.732,10.732,0,0,0-1.343,2.69,14,14,0,0,0-.586,2.517c-.1.779-.167,1.474-.2,2.081a4.527,4.527,0,0,1-.215,1.347,1.248,1.248,0,0,1-.911.648,6.147,6.147,0,0,1-1.5.174,6.964,6.964,0,0,1-1.562-.174,2.542,2.542,0,0,1-1.062-.432,2.732,2.732,0,0,1-.283-1.237q-.11-1.063-.151-2.559t-.021-3.211c.012-1.141.043-2.228.085-3.254s.108-1.915.195-2.667A4.693,4.693,0,0,1,384.052,195.077Z" fill="#fff"/>
      <path id="Path_70" data-name="Path 70" d="M416.674,195.553q.262-2.9.434-5.465.131-2.212.219-4.382a30.473,30.473,0,0,0,0-3.3,3.116,3.116,0,0,1,.5-1.995,6.981,6.981,0,0,1,2.927-2.561,3.3,3.3,0,0,1,1.128-.346c.232,0,.368.579.412,1.736s.042,2.654,0,4.49-.1,3.911-.173,6.224-.094,4.643-.066,6.986a35.534,35.534,0,0,0,.392,5.292,12.6,12.6,0,0,0,.889,3.188,4.487,4.487,0,0,0,1.149,1.627,3.3,3.3,0,0,0,1.173.63,6.283,6.283,0,0,0,.953.194.61.61,0,0,1,.521.3q.174.392-.282,1a3.633,3.633,0,0,1-1.345,1.042,4.938,4.938,0,0,1-2.1.454,5.106,5.106,0,0,1-2.561-.715,4.071,4.071,0,0,1-1.692-1.628,7.344,7.344,0,0,1-.78-2.016,8.932,8.932,0,0,1-.217-2.343,13.369,13.369,0,0,1-2.256,3.036,11.675,11.675,0,0,1-1.258,1.086,8.778,8.778,0,0,1-1.519.91,8.637,8.637,0,0,1-1.778.608,6.665,6.665,0,0,1-2.04.13,3.438,3.438,0,0,1-2.1-.933,6.977,6.977,0,0,1-1.562-2.124,10.7,10.7,0,0,1-.911-2.865,13.538,13.538,0,0,1-.2-3.166,10.657,10.657,0,0,1,.607-3.037,6.919,6.919,0,0,1,1.518-2.5,5.634,5.634,0,0,1,1.562-1.128,5.487,5.487,0,0,1,1.669-.5,6.661,6.661,0,0,1,1.693,0,10.031,10.031,0,0,1,1.584.325A12.8,12.8,0,0,1,416.674,195.553Zm-6.766,3.906a8.435,8.435,0,0,0-.5,2.19,12.934,12.934,0,0,0-.045,2.1,6.651,6.651,0,0,0,.284,1.6c.144.434.317.666.521.693a1.53,1.53,0,0,0,1.28-.259,9.569,9.569,0,0,0,1.8-1.779,13.985,13.985,0,0,0,1.063-1.693,16.761,16.761,0,0,0,.911-1.952,7.14,7.14,0,0,0,.456-1.691c.056-.492-.017-.783-.218-.867a6.468,6.468,0,0,0-1.106-.261,5.845,5.845,0,0,0-1.6-.043,4.632,4.632,0,0,0-1.651.5A2.549,2.549,0,0,0,409.908,199.459Z" fill="#fff"/>
    </g>
    <path id="Path_71" data-name="Path 71" d="M330.194,67.6a.441.441,0,0,1,.114-.133,2.745,2.745,0,0,0,.867-2.088.982.982,0,0,0-.174-.586.9.9,0,0,0-.78-.263,1.755,1.755,0,0,0-1.554,1.586l-.041.413,0-.023c-.017-.123-.033-.261-.058-.4a1.053,1.053,0,0,0-.214-.494c0-1.071.259-1.434.477-1.548a.4.4,0,0,1,.437.046.277.277,0,0,1,.059.307.2.2,0,0,1-.2.14.148.148,0,0,1-.142-.138.162.162,0,0,1,.1-.184.065.065,0,0,0,.04-.083.066.066,0,0,0-.084-.039.292.292,0,0,0-.181.325.278.278,0,0,0,.264.248.324.324,0,0,0,.323-.222.4.4,0,0,0-.1-.453.533.533,0,0,0-.582-.061c-.347.183-.529.712-.544,1.564a.157.157,0,0,0-.163.045c-.3-.749-.639-1.16-1.015-1.214a.534.534,0,0,0-.526.258.4.4,0,0,0,.064.457.323.323,0,0,0,.379.1.28.28,0,0,0,.166-.324.293.293,0,0,0-.283-.242.065.065,0,1,0,0,.129.163.163,0,0,1,.154.14.15.15,0,0,1-.086.178.2.2,0,0,1-.233-.065.276.276,0,0,1-.049-.308.4.4,0,0,1,.4-.193c.236.033.591.278.95,1.228l-.006.016a1.961,1.961,0,0,0,.035.89l-.069-.18a1.755,1.755,0,0,0-1.916-1.121.9.9,0,0,0-.683.458.973.973,0,0,0-.014.611,2.739,2.739,0,0,0,1.385,1.786.485.485,0,0,1,.145.1c.131.153,0,.378-.1.55a1.873,1.873,0,0,0-.034,1.817.721.721,0,0,0,.46.4.742.742,0,0,0,.518-.157,2.42,2.42,0,0,0,1.034-1.67,2.407,2.407,0,0,0,1.337,1.134.747.747,0,0,0,.54.016.714.714,0,0,0,.338-.506,1.87,1.87,0,0,0-.509-1.745c-.144-.14-.329-.323-.242-.5m-2.461,2.506c-.756.539-.542-1.417.117-1.381a.193.193,0,0,1,.139.109.983.983,0,0,1-.256,1.272m2.209-.405a.982.982,0,0,1-.533-1.183.193.193,0,0,1,.112-.138c.631-.182,1.278,1.677.421,1.321" fill="#39bdb3"/>
    <path id="Path_72" data-name="Path 72" d="M301.555,65.976a.431.431,0,0,1,.135-.09,2.533,2.533,0,0,0,1.295-1.637.905.905,0,0,0-.008-.564.827.827,0,0,0-.628-.43,1.621,1.621,0,0,0-1.778,1.019l-.14.357,0-.022c.016-.113.037-.239.047-.366a1,1,0,0,0-.064-.492c.269-.951.589-1.209.811-1.256a.372.372,0,0,1,.376.151.254.254,0,0,1-.024.287.187.187,0,0,1-.211.075.137.137,0,0,1-.09-.158.148.148,0,0,1,.133-.139.06.06,0,0,0,.055-.064.061.061,0,0,0-.063-.056.271.271,0,0,0-.244.243.257.257,0,0,0,.173.287.3.3,0,0,0,.343-.116.376.376,0,0,0,.029-.427.5.5,0,0,0-.5-.2c-.354.075-.648.5-.875,1.254a.15.15,0,0,0-.157,0c-.077-.741-.275-1.191-.6-1.333a.493.493,0,0,0-.532.1.373.373,0,0,0-.058.423A.3.3,0,0,0,299.3,63a.258.258,0,0,0,.226-.247.267.267,0,0,0-.189-.286.06.06,0,1,0-.032.115.149.149,0,0,1,.1.162.137.137,0,0,1-.121.137.188.188,0,0,1-.191-.115.258.258,0,0,1,.033-.287.381.381,0,0,1,.4-.073c.2.09.456.4.536,1.331l-.009.013a1.82,1.82,0,0,0-.192.8l-.016-.176a1.621,1.621,0,0,0-1.421-1.478.825.825,0,0,0-.722.235.9.9,0,0,0-.166.54,2.53,2.53,0,0,0,.782,1.935.423.423,0,0,1,.1.124c.078.168-.093.336-.229.464a1.732,1.732,0,0,0-.485,1.606.658.658,0,0,0,.308.471.688.688,0,0,0,.5-.01,2.235,2.235,0,0,0,1.339-1.225,2.23,2.23,0,0,0,.9,1.344.684.684,0,0,0,.476.149.662.662,0,0,0,.428-.365,1.73,1.73,0,0,0-.015-1.678c-.093-.16-.211-.37-.089-.509m-2.816,1.611c-.806.289-.125-1.4.451-1.2a.181.181,0,0,1,.1.132.91.91,0,0,1-.547,1.067m2.065.193a.908.908,0,0,1-.177-1.184.18.18,0,0,1,.133-.1c.608,0,.717,1.811.044,1.279" fill="#1478a3"/>
    <path id="Path_73" data-name="Path 73" d="M276.14,82.43a.389.389,0,0,1,.076-.132,2.377,2.377,0,0,0,.411-1.913.839.839,0,0,0-.241-.471.769.769,0,0,0-.7-.1,1.516,1.516,0,0,0-1.073,1.593l.03.357-.008-.02c-.033-.1-.067-.216-.111-.327a.912.912,0,0,0-.26-.386c-.165-.911,0-1.261.163-1.392a.354.354,0,0,1,.38-.029.24.24,0,0,1,.1.251.174.174,0,0,1-.144.151.131.131,0,0,1-.144-.1.143.143,0,0,1,.055-.172.056.056,0,0,0,.021-.076.055.055,0,0,0-.076-.02.252.252,0,0,0-.106.305.244.244,0,0,0,.264.17.283.283,0,0,0,.241-.24.351.351,0,0,0-.153-.371.462.462,0,0,0-.505.039c-.266.211-.337.69-.216,1.416a.141.141,0,0,0-.133.064c-.37-.59-.725-.886-1.052-.873a.466.466,0,0,0-.409.3.347.347,0,0,0,.128.38.281.281,0,0,0,.338.024.245.245,0,0,0,.089-.3.253.253,0,0,0-.279-.162.057.057,0,0,0-.045.065.055.055,0,0,0,.065.044.143.143,0,0,1,.154.094.129.129,0,0,1-.045.166.174.174,0,0,1-.208-.018.241.241,0,0,1-.092-.254.352.352,0,0,1,.308-.226c.207-.01.546.141,1,.895a.062.062,0,0,0,0,.015,1.707,1.707,0,0,0,.169.751l-.086-.142a1.519,1.519,0,0,0-1.807-.653.772.772,0,0,0-.509.5.837.837,0,0,0,.084.522,2.368,2.368,0,0,0,1.459,1.3.433.433,0,0,1,.139.061c.134.109.059.322,0,.485a1.614,1.614,0,0,0,.256,1.551.62.62,0,0,0,.454.268.642.642,0,0,0,.415-.215,2.1,2.1,0,0,0,.619-1.584,2.08,2.08,0,0,0,1.313.756.637.637,0,0,0,.462-.072.62.62,0,0,0,.21-.483,1.618,1.618,0,0,0-.707-1.4c-.145-.1-.331-.224-.286-.391m-1.7,2.518c-.559.576-.683-1.121-.118-1.194a.176.176,0,0,1,.136.071.854.854,0,0,1-.018,1.123m1.815-.691a.851.851,0,0,1-.64-.923.167.167,0,0,1,.074-.134c.509-.255,1.35,1.225.566,1.057" fill="#cc1f40"/>
    <path id="Path_74" data-name="Path 74" d="M301.019,122.807a.555.555,0,0,1,.163-.107,3.048,3.048,0,0,0,1.566-1.964,1.09,1.09,0,0,0-.009-.678.992.992,0,0,0-.751-.519,1.954,1.954,0,0,0-2.145,1.218l-.168.428a.118.118,0,0,1,0-.026c.019-.136.045-.288.059-.441a1.176,1.176,0,0,0-.078-.592c.33-1.142.716-1.45.983-1.507a.451.451,0,0,1,.452.184.307.307,0,0,1-.03.345.224.224,0,0,1-.253.089.167.167,0,0,1-.111-.191.18.18,0,0,1,.163-.165.073.073,0,0,0-.01-.145.323.323,0,0,0-.295.291.311.311,0,0,0,.207.346.361.361,0,0,0,.413-.138.449.449,0,0,0,.036-.513.6.6,0,0,0-.6-.243c-.426.09-.78.6-1.057,1.5a.177.177,0,0,0-.189,0c-.089-.892-.327-1.435-.713-1.606a.593.593,0,0,0-.64.113.448.448,0,0,0-.07.509.359.359,0,0,0,.374.221.312.312,0,0,0,.275-.294.325.325,0,0,0-.227-.347.073.073,0,0,0-.09.05.072.072,0,0,0,.05.088.183.183,0,0,1,.124.2.168.168,0,0,1-.148.165.222.222,0,0,1-.228-.14.308.308,0,0,1,.04-.344.451.451,0,0,1,.482-.085c.244.107.548.476.639,1.6l-.011.015a2.17,2.17,0,0,0-.234.961l-.018-.213a1.951,1.951,0,0,0-1.7-1.783.989.989,0,0,0-.868.279,1.091,1.091,0,0,0-.2.649,3.043,3.043,0,0,0,.932,2.331.511.511,0,0,1,.126.149c.093.2-.116.4-.277.557a2.077,2.077,0,0,0-.592,1.929.791.791,0,0,0,.369.567.821.821,0,0,0,.6-.009,2.687,2.687,0,0,0,1.616-1.467,2.672,2.672,0,0,0,1.08,1.62.82.82,0,0,0,.571.181.8.8,0,0,0,.517-.436,2.081,2.081,0,0,0-.01-2.018c-.113-.193-.253-.446-.106-.613m-3.392,1.924c-.972.344-.144-1.679.546-1.439a.216.216,0,0,1,.116.159,1.093,1.093,0,0,1-.662,1.28m2.481.242a1.091,1.091,0,0,1-.208-1.425.22.22,0,0,1,.161-.113c.731,0,.853,2.181.047,1.538" fill="#1478a3"/>
    <path id="Path_75" data-name="Path 75" d="M285.875,100.047a.44.44,0,0,1,.145-.077,2.593,2.593,0,0,0,1.482-1.537.93.93,0,0,0,.048-.576.844.844,0,0,0-.594-.5,1.66,1.66,0,0,0-1.912.859l-.179.349.006-.021c.026-.115.061-.241.084-.369a1.008,1.008,0,0,0-.017-.507c.37-.941.721-1.17.951-1.2a.386.386,0,0,1,.37.192.265.265,0,0,1-.056.29.191.191,0,0,1-.22.055.143.143,0,0,1-.079-.171.153.153,0,0,1,.149-.127.061.061,0,0,0,.064-.06.06.06,0,0,0-.059-.062.274.274,0,0,0-.272.221.264.264,0,0,0,.148.31.3.3,0,0,0,.359-.084.377.377,0,0,0,.072-.43.505.505,0,0,0-.49-.256c-.368.043-.709.446-1.016,1.19a.148.148,0,0,0-.159-.018c0-.761-.162-1.24-.475-1.416a.5.5,0,0,0-.55.045.38.38,0,0,0-.1.425.3.3,0,0,0,.3.217.267.267,0,0,0,.257-.228.278.278,0,0,0-.165-.311.062.062,0,0,0-.045.115.152.152,0,0,1,.089.175.14.14,0,0,1-.138.126.19.19,0,0,1-.183-.136.265.265,0,0,1,.063-.288.38.38,0,0,1,.414-.033c.2.111.427.447.414,1.406l-.011.013a1.83,1.83,0,0,0-.276.794l0-.182A1.658,1.658,0,0,0,283,96.6a.842.842,0,0,0-.758.167.923.923,0,0,0-.223.533,2.584,2.584,0,0,0,.6,2.047.454.454,0,0,1,.094.136c.061.179-.13.332-.281.449a1.764,1.764,0,0,0-.654,1.585.674.674,0,0,0,.266.509.7.7,0,0,0,.509.041,2.286,2.286,0,0,0,1.484-1.112,2.274,2.274,0,0,0,.785,1.458.7.7,0,0,0,.468.2.673.673,0,0,0,.472-.328,1.765,1.765,0,0,0,.153-1.709c-.078-.171-.177-.4-.039-.526m-3.024,1.356c-.851.213.011-1.432.576-1.174a.184.184,0,0,1,.086.144.929.929,0,0,1-.662,1.03m2.079.4a.927.927,0,0,1-.061-1.223.186.186,0,0,1,.145-.083c.618.058.547,1.914-.084,1.306" fill="#39bdb3"/>
    <path id="Path_76" data-name="Path 76" d="M286.986,71.437a.474.474,0,0,1,.074-.179,3.016,3.016,0,0,0,.2-2.481,1.078,1.078,0,0,0-.382-.553.985.985,0,0,0-.906-.009,1.934,1.934,0,0,0-1.086,2.19l.1.446-.01-.023c-.061-.123-.124-.262-.2-.394a1.176,1.176,0,0,0-.391-.445c-.364-1.121-.218-1.588-.031-1.782a.454.454,0,0,1,.475-.1.307.307,0,0,1,.165.3.222.222,0,0,1-.158.214.163.163,0,0,1-.2-.1.177.177,0,0,1,.039-.226.071.071,0,0,0,.013-.1.072.072,0,0,0-.1-.012.322.322,0,0,0-.08.4.309.309,0,0,0,.361.169.357.357,0,0,0,.263-.342.445.445,0,0,0-.254-.442.591.591,0,0,0-.631.134c-.3.311-.31.925-.034,1.822a.176.176,0,0,0-.157.1c-.567-.683-1.064-1-1.476-.925a.592.592,0,0,0-.463.449.443.443,0,0,0,.224.458.358.358,0,0,0,.432-.027.308.308,0,0,0,.06-.395.322.322,0,0,0-.379-.157.072.072,0,0,0-.045.09.074.074,0,0,0,.091.046.177.177,0,0,1,.209.092.161.161,0,0,1-.03.216.223.223,0,0,1-.265.012.306.306,0,0,1-.158-.305.452.452,0,0,1,.349-.338c.259-.046.715.089,1.414.961v.019a2.155,2.155,0,0,0,.34.919l-.132-.164a1.936,1.936,0,0,0-2.39-.52.984.984,0,0,0-.558.712,1.073,1.073,0,0,0,.193.645,3.019,3.019,0,0,0,2.059,1.4.507.507,0,0,1,.186.054c.19.114.13.395.08.611a2.066,2.066,0,0,0,.587,1.913.786.786,0,0,0,.617.261.812.812,0,0,0,.488-.34,2.664,2.664,0,0,0,.513-2.1,2.655,2.655,0,0,0,1.785.732.824.824,0,0,0,.572-.169.791.791,0,0,0,.182-.645,2.062,2.062,0,0,0-1.129-1.652c-.2-.1-.455-.226-.426-.445M285.267,74.9c-.608.822-1.051-1.3-.351-1.485a.215.215,0,0,1,.183.066,1.085,1.085,0,0,1,.168,1.419m2.173-1.178a1.084,1.084,0,0,1-.963-1.056.216.216,0,0,1,.07-.182c.6-.406,1.911,1.318.893,1.238" fill="#e8c325"/>
    <path id="Path_77" data-name="Path 77" d="M331.96,122.015a.4.4,0,0,1,.062-.147,2.473,2.473,0,0,0,.159-2.032.884.884,0,0,0-.313-.453.806.806,0,0,0-.742-.007,1.584,1.584,0,0,0-.889,1.793l.081.365-.009-.018c-.05-.1-.1-.215-.162-.323a.969.969,0,0,0-.32-.364c-.3-.918-.179-1.3-.026-1.459a.37.37,0,0,1,.389-.084.253.253,0,0,1,.136.247.182.182,0,0,1-.13.175.133.133,0,0,1-.16-.078.148.148,0,0,1,.032-.186.057.057,0,0,0,.011-.081.059.059,0,0,0-.082-.011.263.263,0,0,0-.066.33.254.254,0,0,0,.3.139.292.292,0,0,0,.215-.281.363.363,0,0,0-.208-.362.485.485,0,0,0-.517.111c-.245.254-.253.757-.027,1.492a.144.144,0,0,0-.129.084c-.464-.559-.871-.816-1.208-.756a.482.482,0,0,0-.38.367.36.36,0,0,0,.185.374.292.292,0,0,0,.353-.021.252.252,0,0,0,.049-.323.262.262,0,0,0-.31-.129.058.058,0,0,0-.037.073.06.06,0,0,0,.074.038.144.144,0,0,1,.171.075.132.132,0,0,1-.025.177.179.179,0,0,1-.216.01.252.252,0,0,1-.13-.25.372.372,0,0,1,.286-.277c.212-.037.585.073,1.158.788v.015a1.762,1.762,0,0,0,.279.753l-.109-.134a1.584,1.584,0,0,0-1.956-.427.806.806,0,0,0-.457.584.882.882,0,0,0,.157.528,2.475,2.475,0,0,0,1.687,1.144.4.4,0,0,1,.152.044c.155.093.106.323.066.5a1.693,1.693,0,0,0,.479,1.567.647.647,0,0,0,.506.213.665.665,0,0,0,.4-.278,2.188,2.188,0,0,0,.42-1.722,2.166,2.166,0,0,0,1.462.6.669.669,0,0,0,.467-.138.647.647,0,0,0,.15-.528,1.689,1.689,0,0,0-.924-1.353c-.163-.079-.373-.185-.35-.364m-1.407,2.835c-.5.673-.86-1.063-.288-1.216a.174.174,0,0,1,.15.054.887.887,0,0,1,.138,1.162m1.779-.964a.888.888,0,0,1-.788-.865.173.173,0,0,1,.057-.149c.492-.333,1.565,1.079.731,1.014" fill="#e8c325"/>
    <path id="Path_78" data-name="Path 78" d="M347.206,104.63a.471.471,0,0,1,.1-.131,2.535,2.535,0,0,0,.652-1.982.909.909,0,0,0-.2-.527.82.82,0,0,0-.735-.187,1.62,1.62,0,0,0-1.317,1.569l-.01.384,0-.022c-.024-.111-.049-.237-.083-.359a.982.982,0,0,0-.231-.44c-.074-.985.137-1.336.328-1.458a.377.377,0,0,1,.407.012.256.256,0,0,1,.075.278.185.185,0,0,1-.171.143.139.139,0,0,1-.141-.117.154.154,0,0,1,.077-.177.059.059,0,0,0,.032-.078.061.061,0,0,0-.08-.03.266.266,0,0,0-.145.311.258.258,0,0,0,.261.21.3.3,0,0,0,.282-.228.372.372,0,0,0-.119-.409.5.5,0,0,0-.541-.016c-.307.195-.435.693-.388,1.478a.146.146,0,0,0-.148.054c-.328-.669-.67-1.024-1.02-1.045a.5.5,0,0,0-.467.273.372.372,0,0,0,.093.418.3.3,0,0,0,.357.063.26.26,0,0,0,.127-.309.269.269,0,0,0-.277-.2.061.061,0,0,0-.055.064.058.058,0,0,0,.064.055.153.153,0,0,1,.153.117.138.138,0,0,1-.069.171.187.187,0,0,1-.217-.043.258.258,0,0,1-.069-.28.38.38,0,0,1,.352-.206c.221.014.565.213.962,1.062l0,.016a1.822,1.822,0,0,0,.1.817l-.075-.161a1.622,1.622,0,0,0-1.843-.9.826.826,0,0,0-.6.469.918.918,0,0,0,.03.564,2.536,2.536,0,0,0,1.4,1.546.417.417,0,0,1,.14.081c.131.13.028.347-.054.513a1.727,1.727,0,0,0,.1,1.674.661.661,0,0,0,.451.336.7.7,0,0,0,.465-.181,2.236,2.236,0,0,0,.834-1.611,2.23,2.23,0,0,0,1.309.95.69.69,0,0,0,.5-.026.656.656,0,0,0,.275-.489,1.724,1.724,0,0,0-.592-1.569c-.143-.118-.326-.274-.26-.447m-2.085,2.481c-.657.55-.6-1.266.008-1.279a.178.178,0,0,1,.138.091.907.907,0,0,1-.146,1.188m2-.529a.907.907,0,0,1-.574-1.051.179.179,0,0,1,.093-.135c.569-.212,1.3,1.452.481,1.186" fill="#39bdb3"/>
    <path id="Path_79" data-name="Path 79" d="M343.165,75.216a.566.566,0,0,1,.19-.091,3.282,3.282,0,0,0,1.963-1.867,1.18,1.18,0,0,0,.094-.728,1.074,1.074,0,0,0-.727-.665,2.106,2.106,0,0,0-2.474.984l-.244.433.006-.027c.041-.143.092-.3.128-.464a1.275,1.275,0,0,0,0-.643c.523-1.174.981-1.446,1.273-1.466a.489.489,0,0,1,.459.263.333.333,0,0,1-.086.364.24.24,0,0,1-.283.058.18.18,0,0,1-.089-.22.194.194,0,0,1,.2-.153.08.08,0,0,0,.083-.073.077.077,0,0,0-.073-.082.347.347,0,0,0-.357.267.337.337,0,0,0,.169.4.389.389,0,0,0,.463-.086.484.484,0,0,0,.116-.544.648.648,0,0,0-.61-.35c-.468.034-.923.525-1.353,1.453a.191.191,0,0,0-.2-.031c.036-.966-.137-1.581-.523-1.822a.642.642,0,0,0-.7.026.48.48,0,0,0-.151.534.389.389,0,0,0,.367.292.338.338,0,0,0,.338-.275.349.349,0,0,0-.193-.4.078.078,0,0,0-.062.143.193.193,0,0,1,.1.227.18.18,0,0,1-.181.154.243.243,0,0,1-.224-.184.335.335,0,0,1,.1-.363.49.49,0,0,1,.527-.019c.245.152.515.592.447,1.807l-.014.016a2.319,2.319,0,0,0-.393.992l.012-.23a2.106,2.106,0,0,0-1.557-2.159,1.071,1.071,0,0,0-.971.171,1.171,1.171,0,0,0-.312.664,3.287,3.287,0,0,0,.651,2.629.571.571,0,0,1,.113.179c.068.23-.184.415-.38.554a2.239,2.239,0,0,0-.917,1.975.855.855,0,0,0,.31.661.885.885,0,0,0,.642.079,2.9,2.9,0,0,0,1.945-1.329,2.884,2.884,0,0,0,.915,1.892.885.885,0,0,0,.584.278.857.857,0,0,0,.616-.39,2.237,2.237,0,0,0,.288-2.16c-.091-.222-.2-.513-.021-.67m-3.912,1.554c-1.09.224.093-1.816.8-1.457a.231.231,0,0,1,.1.187,1.178,1.178,0,0,1-.9,1.27m2.616.627a1.18,1.18,0,0,1-.01-1.555.234.234,0,0,1,.189-.1c.781.108.588,2.459-.179,1.652" fill="#1478a3"/>
    <path id="Path_80" data-name="Path 80" d="M353.048,96.927a.4.4,0,0,1,.149-.012,2.358,2.358,0,0,0,1.784-.754.842.842,0,0,0,.244-.463.767.767,0,0,0-.318-.629,1.5,1.5,0,0,0-1.9.036l-.272.227a.078.078,0,0,0,.012-.015c.062-.086.136-.179.2-.278a.926.926,0,0,0,.166-.429c.643-.653,1.018-.719,1.219-.659a.345.345,0,0,1,.24.291.239.239,0,0,1-.15.222.171.171,0,0,1-.2-.033.128.128,0,0,1,0-.17.14.14,0,0,1,.171-.053.055.055,0,1,0,.045-.1.248.248,0,0,0-.3.088.236.236,0,0,0,.013.31.277.277,0,0,0,.33.059.346.346,0,0,0,.213-.334.458.458,0,0,0-.318-.387c-.323-.1-.75.119-1.271.63a.139.139,0,0,0-.128-.072c.268-.635.307-1.09.109-1.349a.457.457,0,0,0-.475-.159.343.343,0,0,0-.235.318.276.276,0,0,0,.174.288.239.239,0,0,0,.294-.1.25.25,0,0,0-.028-.317.055.055,0,0,0-.079,0,.057.057,0,0,0,0,.078.138.138,0,0,1,.014.178.129.129,0,0,1-.161.056.174.174,0,0,1-.1-.178A.243.243,0,0,1,352.63,93a.349.349,0,0,1,.357.12c.125.163.2.525-.156,1.321l-.013.006a1.682,1.682,0,0,0-.513.565l.066-.151a1.505,1.505,0,0,0-.5-1.835.768.768,0,0,0-.693-.131.847.847,0,0,0-.376.366,2.347,2.347,0,0,0-.225,1.921.422.422,0,0,1,.029.147c-.012.172-.226.232-.392.275a1.61,1.61,0,0,0-1.112,1.09.609.609,0,0,0,.042.52.642.642,0,0,0,.41.215,2.079,2.079,0,0,0,1.635-.4,2.061,2.061,0,0,0,.133,1.494.634.634,0,0,0,.323.333.607.607,0,0,0,.509-.105,1.605,1.605,0,0,0,.737-1.372c0-.171-.008-.394.153-.453m-3.007.054c-.784-.124.52-1.19.9-.773a.173.173,0,0,1,.02.15.843.843,0,0,1-.921.623m1.592,1.078a.843.843,0,0,1,.385-1.042.168.168,0,0,1,.15-.017c.5.269-.224,1.792-.535,1.059" fill="#e8c325"/>
    <path id="Path_81" data-name="Path 81" d="M315.1,74.218a.562.562,0,0,1,.2-.072,3.287,3.287,0,0,0,2.131-1.675,1.184,1.184,0,0,0,.162-.716,1.075,1.075,0,0,0-.663-.73,2.105,2.105,0,0,0-2.554.747l-.284.408a.2.2,0,0,1,.01-.026c.053-.139.117-.292.17-.45a1.274,1.274,0,0,0,.065-.64c.63-1.119,1.112-1.347,1.406-1.34a.487.487,0,0,1,.431.305.331.331,0,0,1-.12.355.239.239,0,0,1-.286.031.18.18,0,0,1-.069-.228.194.194,0,0,1,.211-.134.078.078,0,0,0,.089-.064.076.076,0,0,0-.064-.089.347.347,0,0,0-.38.232.337.337,0,0,0,.13.415.389.389,0,0,0,.468-.043.48.48,0,0,0,.166-.529.643.643,0,0,0-.572-.407c-.471-.01-.97.437-1.486,1.319a.188.188,0,0,0-.2-.05c.126-.958.012-1.587-.351-1.863a.642.642,0,0,0-.7-.04.486.486,0,0,0-.2.517.388.388,0,0,0,.34.326.336.336,0,0,0,.36-.242.348.348,0,0,0-.152-.419.076.076,0,0,0-.105.03.075.075,0,0,0,.03.1.2.2,0,0,1,.08.236.177.177,0,0,1-.2.135.241.241,0,0,1-.2-.2.335.335,0,0,1,.128-.352.492.492,0,0,1,.529.031c.228.174.456.636.274,1.84l-.016.014a2.373,2.373,0,0,0-.485.952l.035-.228a2.109,2.109,0,0,0-1.347-2.3,1.072,1.072,0,0,0-.983.078,1.176,1.176,0,0,0-.374.631,3.282,3.282,0,0,0,.4,2.68.57.57,0,0,1,.093.188c.047.236-.221.4-.429.516a2.242,2.242,0,0,0-1.1,1.881.857.857,0,0,0,.246.687.892.892,0,0,0,.632.139,2.907,2.907,0,0,0,2.062-1.14,2.888,2.888,0,0,0,.732,1.969.888.888,0,0,0,.556.332.863.863,0,0,0,.651-.33,2.248,2.248,0,0,0,.49-2.123c-.07-.231-.155-.531.04-.67m-4.04,1.18c-1.107.121.265-1.8.931-1.377a.23.23,0,0,1,.08.2,1.175,1.175,0,0,1-1.011,1.18m2.547.87a1.177,1.177,0,0,1,.135-1.549.231.231,0,0,1,.2-.079c.769.181.355,2.5-.332,1.628" fill="#cc1f40"/>
    <path id="Path_82" data-name="Path 82" d="M299.564,80.5c-.664-2.137.567-4.491,2.389-5.728.116-.078,1.243-.787,1.247-.779a6.173,6.173,0,0,1,.961,2.271,5.127,5.127,0,0,1-.206,2.424,5.521,5.521,0,0,1-3.521,3.393,13.2,13.2,0,0,0,2.285-6.987,32.817,32.817,0,0,1-3.139,6.764,32.267,32.267,0,0,1-6.209-4.3c1.187,2.021,3.648,4.75,5.877,5.641a12.094,12.094,0,0,1-2.058.16,6.4,6.4,0,0,1-2.894-.919,7.035,7.035,0,0,1-1.951-2.078c-.967-1.434-.951-2.552-1.229-4.175a9.987,9.987,0,0,1,5.186.977,6.277,6.277,0,0,1,3.262,3.332" fill="#8eaa3d"/>
    <path id="Path_83" data-name="Path 83" d="M302.5,86.88a3.685,3.685,0,0,0,3.864,1.575c.089-.017.944-.211.942-.215a4.3,4.3,0,0,0-.672-1.517,3.593,3.593,0,0,0-1.272-1.043,3.658,3.658,0,0,0-3.24.051,9.161,9.161,0,0,1,4.431,2.216,22.6,22.6,0,0,0-4.707-1.713,20.975,20.975,0,0,0-.712,4.92,9.721,9.721,0,0,1-.093-5.4,7.48,7.48,0,0,0-1.006.887,4.065,4.065,0,0,0-.86,1.784,4.716,4.716,0,0,0,.131,1.888,6.247,6.247,0,0,0,1.477,2.537,6.275,6.275,0,0,0,1.865-2.883,4.186,4.186,0,0,0-.148-3.09" fill="#8eaa3d"/>
    <path id="Path_84" data-name="Path 84" d="M290.655,110.907a2.8,2.8,0,0,1-.951-3.034c.018-.068.219-.7.223-.7a3.258,3.258,0,0,1,1.109.607,2.733,2.733,0,0,1,.711,1.032,2.791,2.791,0,0,1-.243,2.457,7,7,0,0,0-1.4-3.5,17.274,17.274,0,0,1,1,3.683,16,16,0,0,1-3.782.228,7.4,7.4,0,0,0,4.092.413,5.845,5.845,0,0,1-.737.708,3.085,3.085,0,0,1-1.41.539,3.576,3.576,0,0,1-1.425-.219,4.752,4.752,0,0,1-1.831-1.283,4.775,4.775,0,0,1,2.307-1.233,3.188,3.188,0,0,1,2.337.309" fill="#8eaa3d"/>
    <path id="Path_85" data-name="Path 85" d="M338.509,109.707a2.537,2.537,0,0,1,2.86-.292c.057.029.583.323.582.325a2.956,2.956,0,0,1-.739.873,2.492,2.492,0,0,1-1.044.442,2.523,2.523,0,0,1-2.132-.661,6.336,6.336,0,0,0,3.36-.6,15.645,15.645,0,0,1-3.444.218,14.435,14.435,0,0,1,.484-3.391,6.683,6.683,0,0,0-1.108,3.549,5.088,5.088,0,0,1-.494-.782,2.774,2.774,0,0,1-.221-1.346,3.206,3.206,0,0,1,.453-1.221,4.272,4.272,0,0,1,1.468-1.389,4.3,4.3,0,0,1,.673,2.266,2.881,2.881,0,0,1-.7,2.014" fill="#8eaa3d"/>
    <path id="Path_86" data-name="Path 86" d="M291.764,116.6a2.093,2.093,0,0,1-2.339.37c-.048-.021-.493-.239-.492-.241a2.423,2.423,0,0,1,.567-.751,2.044,2.044,0,0,1,.838-.411,2.076,2.076,0,0,1,1.782.448,5.2,5.2,0,0,0-2.733.649,12.873,12.873,0,0,1,2.82-.335,11.822,11.822,0,0,1-.244,2.809,5.515,5.515,0,0,0,.75-2.969,4.267,4.267,0,0,1,.441.62,2.271,2.271,0,0,1,.243,1.1,2.676,2.676,0,0,1-.315,1.025,3.562,3.562,0,0,1-1.144,1.21,3.541,3.541,0,0,1-.657-1.833,2.362,2.362,0,0,1,.483-1.687" fill="#bd872c"/>
    <path id="Path_87" data-name="Path 87" d="M334.936,99.83a3.122,3.122,0,0,0,3.143-1.613c.038-.068.384-.723.38-.725a3.634,3.634,0,0,0-1.344-.4,3.065,3.065,0,0,0-1.371.242,3.1,3.1,0,0,0-1.753,2.11,7.762,7.762,0,0,1,3.865-1.625,19.1,19.1,0,0,0-3.694,2.08,17.612,17.612,0,0,0,2.767,3.169,8.232,8.232,0,0,1-3.518-2.916,6.546,6.546,0,0,0,.015,1.135,3.424,3.424,0,0,0,.672,1.536,4,4,0,0,0,1.284.957,5.3,5.3,0,0,0,2.443.45,5.3,5.3,0,0,0-.822-2.787,3.533,3.533,0,0,0-2.067-1.608" fill="#8eaa3d"/>
    <path id="Path_88" data-name="Path 88" d="M333.662,113.927a1.582,1.582,0,0,1,1.7-.554c.038.01.4.12.4.122a1.863,1.863,0,0,1-.335.629,1.537,1.537,0,0,1-1.964.283,3.932,3.932,0,0,0,1.967-.809,9.768,9.768,0,0,1-2.069.585,9.088,9.088,0,0,1-.152-2.129,4.165,4.165,0,0,0-.207,2.308,3.269,3.269,0,0,1-.4-.411,1.753,1.753,0,0,1-.312-.79,2,2,0,0,1,.115-.805,2.679,2.679,0,0,1,.711-1.039,2.7,2.7,0,0,1,.709,1.292,1.784,1.784,0,0,1-.16,1.318" fill="#e8c325"/>
    <path id="Path_89" data-name="Path 89" d="M342.825,93.659a1.541,1.541,0,0,0-1.372-1.081c-.037,0-.4-.024-.4-.022a1.827,1.827,0,0,0,.094.688,1.5,1.5,0,0,0,1.7.921,3.844,3.844,0,0,1-1.526-1.4,9.435,9.435,0,0,0,1.7,1.233,8.762,8.762,0,0,0,.855-1.9,4.041,4.041,0,0,1-.588,2.18,3.126,3.126,0,0,0,.508-.24,1.691,1.691,0,0,0,.552-.618,2,2,0,0,0,.168-.774,2.645,2.645,0,0,0-.3-1.191,2.626,2.626,0,0,0-1.085.943,1.761,1.761,0,0,0-.3,1.26" fill="#e8c325"/>
    <path id="Path_90" data-name="Path 90" d="M338.967,115.841a2.272,2.272,0,0,1,.615,2.5c-.018.054-.213.556-.217.555a2.632,2.632,0,0,1-.864-.545,2.22,2.22,0,0,1-.522-.871,2.248,2.248,0,0,1,.32-1.97,5.682,5.682,0,0,0,.954,2.9,14.086,14.086,0,0,1-.622-3.027,13,13,0,0,1,3.067.008,5.992,5.992,0,0,0-3.285-.541,4.655,4.655,0,0,1,.631-.534,2.491,2.491,0,0,1,1.165-.364,2.889,2.889,0,0,1,1.141.248,3.858,3.858,0,0,1,1.414,1.129,3.866,3.866,0,0,1-1.925.879,2.58,2.58,0,0,1-1.872-.367" fill="#bd872c"/>
    <path id="Path_91" data-name="Path 91" d="M316.5,85.727a.8.8,0,0,1,.631-.655l.207-.04a.958.958,0,0,1,0,.362.818.818,0,0,1-.162.319.8.8,0,0,1-.65.276,1.982,1.982,0,0,0,.687-.832,4.867,4.867,0,0,1-.786.756,4.541,4.541,0,0,1-.575-.917,2.094,2.094,0,0,0,.457,1.082,1.586,1.586,0,0,1-.279-.087.894.894,0,0,1-.328-.279,1.024,1.024,0,0,1-.141-.388,1.384,1.384,0,0,1,.071-.635,1.354,1.354,0,0,1,.625.409.909.909,0,0,1,.243.629" fill="#e8c325"/>
    <path id="Path_92" data-name="Path 92" d="M341.515,84.968a3.44,3.44,0,0,0-3.313-2.05c-.085,0-.9.048-.9.053a4.013,4.013,0,0,0,.384,1.5,3.336,3.336,0,0,0,4,1.612,8.567,8.567,0,0,1-3.736-2.726,21.15,21.15,0,0,0,4.069,2.306,19.586,19.586,0,0,0,1.418-4.418,9.062,9.062,0,0,1-.752,4.981,7.035,7.035,0,0,0,1.065-.66,3.773,3.773,0,0,0,1.066-1.508,4.342,4.342,0,0,0,.173-1.758,5.843,5.843,0,0,0-.965-2.564,5.849,5.849,0,0,0-2.164,2.363,3.9,3.9,0,0,0-.343,2.869" fill="#8eaa3d"/>
    <path id="Path_93" data-name="Path 93" d="M348.748,89.244a2.452,2.452,0,0,0,1.277-2.467c-.005-.061-.082-.638-.086-.638a2.858,2.858,0,0,0-1.046.354,2.4,2.4,0,0,0-.768.781,2.429,2.429,0,0,0-.161,2.15,6.114,6.114,0,0,1,1.736-2.8,15.022,15.022,0,0,0-1.419,3.018,13.865,13.865,0,0,0,3.219.768,6.468,6.468,0,0,1-3.584-.264,4.927,4.927,0,0,0,.528.721,2.686,2.686,0,0,0,1.13.678,3.138,3.138,0,0,0,1.259.026,4.156,4.156,0,0,0,1.771-.825,4.175,4.175,0,0,0-1.8-1.41,2.769,2.769,0,0,0-2.058-.088" fill="#bd872c"/>
    <path id="Path_94" data-name="Path 94" d="M328.443,80.073a5.584,5.584,0,0,0-3.813-5.039c-.132-.047-1.392-.454-1.394-.446a6.489,6.489,0,0,0-.3,2.494,5.457,5.457,0,0,0,.851,2.341,5.534,5.534,0,0,0,4.257,2.437,13.9,13.9,0,0,1-4.056-6.308,34.35,34.35,0,0,0,4.806,5.867,31.7,31.7,0,0,0,4.729-5.855c-.58,2.3-2.176,5.638-4.051,7.1a11.494,11.494,0,0,0,2-.377,6.1,6.1,0,0,0,2.5-1.659,7.072,7.072,0,0,0,1.288-2.559c.531-1.667.215-2.767.04-4.443a9.5,9.5,0,0,0-4.657,2.311,6.327,6.327,0,0,0-2.2,4.139" fill="#8eaa3d"/>
    <path id="Path_95" data-name="Path 95" d="M327.679,87.116a4.058,4.058,0,0,0,2.081,4.091c.088.051.937.5.939.5a4.716,4.716,0,0,0,.533-1.744,3.954,3.954,0,0,0-.309-1.781,4.019,4.019,0,0,0-2.729-2.289,10.107,10.107,0,0,1,2.091,5.03,24.956,24.956,0,0,0-2.684-4.811,23.1,23.1,0,0,0-4.131,3.579,10.677,10.677,0,0,1,3.8-4.554,8.351,8.351,0,0,0-1.474.014,4.426,4.426,0,0,0-2,.865,5.151,5.151,0,0,0-1.25,1.664,6.884,6.884,0,0,0-.6,3.171,6.9,6.9,0,0,0,3.624-1.055,4.583,4.583,0,0,0,2.1-2.677" fill="#8eaa3d"/>
    <path id="Path_96" data-name="Path 96" d="M328.493,98.869a3.4,3.4,0,0,0-3.459,1.7c-.045.072-.433.78-.43.782a3.944,3.944,0,0,0,1.46.467,3.328,3.328,0,0,0,1.5-.238,3.375,3.375,0,0,0,1.953-2.267,8.466,8.466,0,0,1-4.248,1.7,20.882,20.882,0,0,0,4.071-2.2,19.355,19.355,0,0,0-2.96-3.509,8.974,8.974,0,0,1,3.782,3.246,6.974,6.974,0,0,0,0-1.238,3.7,3.7,0,0,0-.7-1.687,4.3,4.3,0,0,0-1.382-1.068,5.792,5.792,0,0,0-2.657-.538,5.81,5.81,0,0,0,.845,3.056,3.859,3.859,0,0,0,2.226,1.793" fill="#8eaa3d"/>
    <path id="Path_97" data-name="Path 97" d="M295.441,101.218a3.711,3.711,0,0,1-3.971-1.367c-.058-.074-.575-.786-.571-.789a4.311,4.311,0,0,1,1.513-.7,3.644,3.644,0,0,1,1.655.053,3.685,3.685,0,0,1,2.421,2.187,9.222,9.222,0,0,0-4.825-1.259,22.774,22.774,0,0,1,4.7,1.824,21.134,21.134,0,0,1-2.721,4.2,9.767,9.767,0,0,0,3.645-4.026,7.538,7.538,0,0,1,.175,1.339,4.073,4.073,0,0,1-.531,1.92,4.728,4.728,0,0,1-1.349,1.343,6.3,6.3,0,0,1-2.8.943,6.323,6.323,0,0,1,.5-3.419,4.2,4.2,0,0,1,2.161-2.242" fill="#8eaa3d"/>
    <path id="Path_98" data-name="Path 98" d="M301.255,99.083a3.4,3.4,0,0,1,3.664,1.192c.054.066.541.712.536.715a3.958,3.958,0,0,1-1.378.669,3.322,3.322,0,0,1-1.517-.023A3.38,3.38,0,0,1,300.3,99.67a8.484,8.484,0,0,0,4.446,1.078,21.022,21.022,0,0,1-4.342-1.6,19.458,19.458,0,0,1,2.431-3.894,8.977,8.977,0,0,0-3.281,3.751,6.832,6.832,0,0,1-.181-1.226,3.726,3.726,0,0,1,.456-1.769,4.345,4.345,0,0,1,1.219-1.254,5.763,5.763,0,0,1,2.552-.909,5.8,5.8,0,0,1-.4,3.145,3.849,3.849,0,0,1-1.946,2.09" fill="#8eaa3d"/>
    <path id="Path_99" data-name="Path 99" d="M312,112.681a1.842,1.842,0,0,0,1.969-.689c.027-.036.283-.391.281-.392a2.174,2.174,0,0,0-.754-.346,1.8,1.8,0,0,0-.822.031,1.83,1.83,0,0,0-1.2,1.091,4.6,4.6,0,0,1,2.394-.638,11.353,11.353,0,0,0-2.328.917,10.429,10.429,0,0,0,1.36,2.077,4.863,4.863,0,0,1-1.82-1.989,3.691,3.691,0,0,0-.083.664,2.032,2.032,0,0,0,.268.952,2.369,2.369,0,0,0,.674.664,3.122,3.122,0,0,0,1.392.46,3.137,3.137,0,0,0-.257-1.695A2.074,2.074,0,0,0,312,112.681" fill="#8eaa3d"/>
    <path id="Path_100" data-name="Path 100" d="M308.88,111.527a1.689,1.689,0,0,0-1.7.867c-.021.037-.209.39-.207.392a1.951,1.951,0,0,0,.727.221,1.65,1.65,0,0,0,.741-.128,1.671,1.671,0,0,0,.953-1.138,4.2,4.2,0,0,1-2.1.872,10.277,10.277,0,0,0,2-1.119,9.453,9.453,0,0,0-1.492-1.721,4.438,4.438,0,0,1,1.9,1.585,3.448,3.448,0,0,0-.006-.615,1.85,1.85,0,0,0-.36-.832,2.146,2.146,0,0,0-.694-.52,2.859,2.859,0,0,0-1.321-.248,2.859,2.859,0,0,0,.441,1.51,1.908,1.908,0,0,0,1.115.874" fill="#8eaa3d"/>
    <path id="Path_101" data-name="Path 101" d="M286.762,84.712A3.872,3.872,0,0,1,289.63,81.4c.093-.027.983-.252.985-.246a4.489,4.489,0,0,1,.092,1.739,3.774,3.774,0,0,1-.694,1.581,3.838,3.838,0,0,1-3.057,1.494,9.648,9.648,0,0,0,3.094-4.181,23.784,23.784,0,0,1-3.592,3.841,22,22,0,0,1-3.007-4.266,10.2,10.2,0,0,0,2.48,5.1,8.056,8.056,0,0,1-1.363-.351,4.231,4.231,0,0,1-1.652-1.261,4.9,4.9,0,0,1-.776-1.829,6.552,6.552,0,0,1,.175-3.076,6.591,6.591,0,0,1,3.117,1.81,4.381,4.381,0,0,1,1.33,2.963" fill="#8eaa3d"/>
    <path id="Path_102" data-name="Path 102" d="M286.539,93.343a1.651,1.651,0,0,1,1.812-.442c.039.014.4.157.4.158a1.914,1.914,0,0,1-.4.627,1.6,1.6,0,0,1-2.06.14,4.091,4.091,0,0,0,2.1-.687,10.051,10.051,0,0,1-2.193.446,9.345,9.345,0,0,1,.011-2.221,4.323,4.323,0,0,0-.4,2.379,3.663,3.663,0,0,1-.386-.457,1.835,1.835,0,0,1-.262-.846,2.1,2.1,0,0,1,.182-.826,2.772,2.772,0,0,1,.821-1.023,2.822,2.822,0,0,1,.634,1.395,1.873,1.873,0,0,1-.27,1.357" fill="#e8c325"/>
    <path id="Path_103" data-name="Path 103" d="M296.5,113.89a1.2,1.2,0,0,1,.294-1.325c.021-.021.23-.212.232-.211a1.372,1.372,0,0,1,.28.461,1.155,1.155,0,0,1,.044.532,1.192,1.192,0,0,1-.613.856,2.972,2.972,0,0,0,.227-1.594,7.244,7.244,0,0,1-.413,1.575,6.9,6.9,0,0,1-1.447-.72,3.16,3.16,0,0,0,1.427,1.022,2.383,2.383,0,0,1-.425.105,1.3,1.3,0,0,1-.635-.1,1.516,1.516,0,0,1-.479-.384,2.027,2.027,0,0,1-.406-.863,2.044,2.044,0,0,1,1.116.034,1.355,1.355,0,0,1,.8.612" fill="#e8c325"/>
    <path id="Path_104" data-name="Path 104" d="M280.8,91.407a2.828,2.828,0,0,1-2.6-1.877c-.026-.065-.247-.7-.242-.7a3.25,3.25,0,0,1,1.26-.179,2.777,2.777,0,0,1,1.195.4,2.808,2.808,0,0,1,1.283,2.131,7.042,7.042,0,0,0-3.242-1.986,17.372,17.372,0,0,1,3.026,2.37,16.137,16.137,0,0,1-2.913,2.462,7.449,7.449,0,0,0,3.55-2.132,5.826,5.826,0,0,1-.168,1.016,3.1,3.1,0,0,1-.813,1.283,3.6,3.6,0,0,1-1.282.682,4.8,4.8,0,0,1-2.251.069,4.826,4.826,0,0,1,1.119-2.385,3.2,3.2,0,0,1,2.073-1.158" fill="#bd872c"/>
    <path id="Path_105" data-name="Path 105" d="M313.582,88.416a32.257,32.257,0,0,1-4.344-3.031c-2.06-1.547-4.45-2.994-7.017-2.792a8.038,8.038,0,0,0-6.435,4.089c-1.028,1.927-.827,5.4-.827,5.4s-1.434-2.239-1.948-2.791a7.249,7.249,0,0,0-6.461-2.522c-2.056.338-4.085,1.681-4.223,3.931-.147,2.384,2.33,5.664,4.866,3.984-.35.232-1.428-.12-1.723-.353a3.2,3.2,0,0,1-.973-4.208c.926-1.538,3.4-1.6,4.874-.809a11.929,11.929,0,0,1,3.718,3.711,24.54,24.54,0,0,1,1.4,2.219c.613,1.076,1.139,2.2,1.711,3.3,1.221,2.334,6.793,12.667,6.793,12.667-3.186-1.983-9-4.137-11.136.529a3.532,3.532,0,0,0,4.016,4.956,2.633,2.633,0,0,0,1.678-1.4,2.237,2.237,0,0,0,.329-1.618c-.456,1.911-3.876,2.673-4.4.4-.362-1.577,1.447-2.941,2.858-3.021,2.372-.133,4.788,1.6,6.313,3.265,5.821,6.368,3.8,15.039.61,22.089a72.083,72.083,0,0,1-13.44,20.1c2.128-1.223,4.673-.956,7-.761a20.657,20.657,0,0,0,8.655-1.315,7.253,7.253,0,0,1-.79-4.035c.059-5.32,2.4-10.184,3.732-15.228l.007-.025a30.259,30.259,0,0,0,.222-16.818,39.891,39.891,0,0,0-3.695-8.472c-1.291-2.279-2.625-4.538-3.831-6.864a43.249,43.249,0,0,1-2.018-4.434c-1.049-2.744-2.072-5.661-1.511-8.544s3-5.574,5.938-5.52a7.928,7.928,0,0,1,3.652,1.186c1.986,1.111,3.7,2.74,5.844,3.528a9.268,9.268,0,0,0,5.87.166A10.9,10.9,0,0,1,313.582,88.416Z" fill="#fff"/>
    <path id="Path_106" data-name="Path 106" d="M317.368,101.67a.225.225,0,1,1-.224-.225.224.224,0,0,1,.224.225" fill="#fff"/>
    <path id="Path_107" data-name="Path 107" d="M314.687,101.59a.225.225,0,1,1-.225-.225.225.225,0,0,1,.225.225" fill="#fff"/>
    <path id="Path_108" data-name="Path 108" d="M347.544,90.695c-.139-2.25-2.167-3.593-4.223-3.931a7.25,7.25,0,0,0-6.461,2.522c-.515.552-1.947,2.791-1.947,2.791s.2-3.468-.827-5.4a8.04,8.04,0,0,0-6.437-4.089c-2.289-.181-4.422.956-6.24,2.229a8.837,8.837,0,0,1-3.616,1.56,4.036,4.036,0,0,1-2-.089c-.466-.168-1.367-.708-1-1.336a1.3,1.3,0,0,1,1.028-.513,5.125,5.125,0,0,1,1.443.127,4.6,4.6,0,0,0-1.52-.411,2.364,2.364,0,0,0-1.644.325c-.845.65-.1,1.691.584,2.155a5.793,5.793,0,0,0,4.342.6,15.654,15.654,0,0,0,4.35-1.984,6.669,6.669,0,0,1,2.972-.768c2.935-.054,5.379,2.637,5.938,5.52s-.463,5.8-1.511,8.544a43.034,43.034,0,0,1-2.018,4.434c-1.207,2.326-2.54,4.585-3.831,6.864a45.139,45.139,0,0,0-2.61,5.394c.117-3.662-.925-6.7-3.924-8.9a5,5,0,0,0-1.017-.575,3.1,3.1,0,0,0,.121-2.28,2.27,2.27,0,0,0,.3-.431,1.592,1.592,0,0,0,.425-2.612c.173-.629.033-1.338-.267-1.12a3.823,3.823,0,0,1-1.6.444,2.291,2.291,0,0,0-.547-.073,2.25,2.25,0,0,0-.548.074,3.851,3.851,0,0,1-1.615-.445c-.284-.207-.425.419-.292,1.02a1.589,1.589,0,0,0,.456,2.7,2.284,2.284,0,0,0,.5.628l-.817,2.406a7.305,7.305,0,0,0-2.828,3.178c-1.653,3.446-1.214,6.289-.652,9.886-.209-2.972.512-7.872,3.03-9.785a4.468,4.468,0,0,1,6.5,1.6c1.551,2.791,1.292,6.74.575,9.729-.445.977-.9,1.948-1.4,2.893-1.6,2.978-3.131,5.965-4.51,9.076a47.123,47.123,0,0,0-2.336,6.181,34.143,34.143,0,0,0-1.171,5.883c-.555,4.558-.43,9.476,5.033,10.445a33.6,33.6,0,0,0,7.293.1c-1.189.06-3.377-5.435-3.733-6.354a28.807,28.807,0,0,1-1.811-7.909c-.639-7.434,2.346-15.837,6.3-22.038,2.075-3.25,5.341-8.157,9.759-7.91,1.411.08,3.222,1.444,2.858,3.021-.523,2.277-3.944,1.515-4.4-.4a2.243,2.243,0,0,0,.33,1.618,2.631,2.631,0,0,0,1.678,1.4c2.836.6,5.486-2.208,4.016-4.956-1.961-3.67-6.259-3.113-9.377-1.51-.6.307-1.19.627-1.759.981,0,0,5.574-10.333,6.792-12.667.574-1.1,1.1-2.221,1.713-3.3a24.3,24.3,0,0,1,1.4-2.219,11.932,11.932,0,0,1,3.719-3.711c1.476-.789,3.949-.729,4.874.809a3.2,3.2,0,0,1-.973,4.208c-.3.233-1.373.585-1.723.353C345.216,96.359,347.691,93.079,347.544,90.695Zm-34.391,10.858a1.225,1.225,0,1,1,1.225,1.225A1.224,1.224,0,0,1,313.153,101.553Zm2.86.952-.314.564-.251-.6Zm-3.243,5.664,3.878-4.205S316.578,106.884,312.77,108.169ZM315.9,101.6a1.225,1.225,0,1,1,1.225,1.225A1.225,1.225,0,0,1,315.9,101.6Z" fill="#fff"/>
    <path id="Path_109" data-name="Path 109" d="M405.032,172.815l-7.752-2.008c-2.464-.628-5.468-1.334-8.9-2.162-3.441-.788-7.326-1.642-11.571-2.5l-3.247-.658-3.379-.628c-2.289-.44-4.662-.848-7.1-1.251-2.435-.431-4.952-.771-7.514-1.176-2.571-.338-5.192-.717-7.862-1.04-5.348-.6-10.87-1.194-16.5-1.533-1.406-.085-2.815-.215-4.233-.264l-4.26-.175-2.137-.1-2.141-.029-4.285-.055-1.015-.019-1.089.013-2.177.027c-1.445.024-2.91.022-4.336.067l-4.225.17-2.105.075-2.112.132c-2.812.181-5.6.35-8.357.609-2.758.205-5.471.532-8.148.806s-5.292.679-7.871.967c-2.564.384-5.081.722-7.521,1.122s-4.82.771-7.111,1.2l-3.384.6-3.251.635c-4.251.823-8.141,1.651-11.59,2.41-1.722.387-3.322.8-4.821,1.115-1.489.355-2.857.683-4.093.977-4.944,1.237-7.77,1.942-7.77,1.942l1.9-.9c1.241-.577,3.065-1.418,5.421-2.411l3.917-1.611c1.432-.572,3-1.15,4.666-1.773,1.679-.592,3.458-1.258,5.354-1.9s3.9-1.3,6-1.929l3.222-.966,3.367-.935c2.282-.65,4.668-1.209,7.118-1.815s4.994-1.1,7.584-1.67l3.952-.736c1.331-.245,2.674-.5,4.038-.7,2.723-.44,5.495-.861,8.318-1.179,1.411-.165,2.826-.367,4.257-.5l4.315-.378,2.173-.184,2.2-.129,4.425-.235c1.465-.056,2.9-.065,4.356-.1l2.176-.043,1.089-.021,1.163.014c5.9.087,11.8.29,17.575.867,1.443.139,2.885.24,4.311.41l4.252.538c2.823.318,5.584.817,8.308,1.243,2.715.478,5.379.973,7.975,1.508l3.839.847,1.884.416,1.848.462c2.446.617,4.827,1.2,7.105,1.866q3.426.946,6.574,1.947c4.2,1.3,7.986,2.668,11.327,3.908,1.668.629,3.225,1.225,4.652,1.806l3.906,1.64c2.351,1.007,4.17,1.865,5.4,2.45Z" fill="#fff"/>
  </g>
</svg>
