<?xml version="1.0" encoding="UTF-8"?>
<svg width="17px" height="20px" viewBox="0 0 17 20" version="1.1" xmlns="http://www.w3.org/2000/svg" xmlns:xlink="http://www.w3.org/1999/xlink">
    <g id="Page-1" stroke="none" stroke-width="1" fill="none" fill-rule="evenodd">
        <path d="M16.9971696,8.03742669 C16.8348303,8.05320331 16.6718621,8.06145851 16.5087628,8.06220541 C14.7198201,8.06245438 13.0513118,7.16073682 12.0713663,5.66406781 L12.0713663,13.830315 C12.0713663,17.1637414 9.36908329,19.8660113 6.03568315,19.8660113 C2.70226991,19.8660113 0,17.1637414 0,13.830315 C0,10.4969149 2.70226991,7.79464498 6.03568315,7.79464498 C6.16167333,7.79464498 6.28483316,7.80596641 6.40871368,7.81374989 L6.40871368,10.7880616 C6.28483316,10.7732023 6.16308851,10.7505463 6.03568315,10.7505463 C4.33437673,10.7505463 2.95519373,12.1297293 2.95519373,13.8310226 C2.95519373,15.5323421 4.33437673,16.911512 6.03568315,16.911512 C7.73730405,16.911512 9.24003999,15.5708795 9.24003999,13.8692586 L9.26975873,0 L12.1152499,0 C12.3835704,2.55168446 14.4410693,4.54479278 17,4.73184529 L17,8.03742669" id="Path" fill="#ffffff"></path>
    </g>
</svg>