<?xml version="1.0" encoding="utf-8"?>
<!-- Generator: Adobe Illustrator 24.0.3, SVG Export Plug-In . SVG Version: 6.00 Build 0)  -->
<svg version="1.1" id="Layer_1" xmlns="http://www.w3.org/2000/svg" xmlns:xlink="http://www.w3.org/1999/xlink" x="0px" y="0px"
	 viewBox="0 0 34 34" style="enable-background:new 0 0 34 34;" xml:space="preserve">
<style type="text/css">
	.st0{fill:#FFFFFF;}
</style>
<g>
	<path class="st0" d="M13.7,24.3c6.7,0,10.4-5.6,10.4-10.4c0-0.2,0-0.3,0-0.5c0.7-0.5,1.3-1.2,1.8-1.9c-0.7,0.3-1.4,0.5-2.1,0.6
		c0.8-0.5,1.3-1.2,1.6-2c-0.7,0.4-1.5,0.7-2.3,0.9c-1.4-1.5-3.7-1.5-5.2-0.2c-1,0.9-1.4,2.2-1.1,3.5c-2.9-0.1-5.7-1.5-7.6-3.8
		c-1,1.7-0.5,3.8,1.1,4.9c-0.6,0-1.2-0.2-1.7-0.5l0,0c0,1.7,1.2,3.2,2.9,3.6c-0.5,0.1-1.1,0.2-1.7,0.1c0.5,1.5,1.9,2.5,3.4,2.5
		c-1.3,1-2.9,1.6-4.6,1.6c-0.3,0-0.6,0-0.9-0.1C9.7,23.7,11.7,24.3,13.7,24.3"/>
</g>
</svg>
