<?xml version="1.0" encoding="utf-8"?>
<!-- Generator: Adobe Illustrator 24.0.3, SVG Export Plug-In . SVG Version: 6.00 Build 0)  -->
<svg version="1.1" id="Layer_1" xmlns="http://www.w3.org/2000/svg" xmlns:xlink="http://www.w3.org/1999/xlink" x="0px" y="0px"
	 viewBox="0 0 34 34" style="enable-background:new 0 0 34 34;" xml:space="preserve">
<style type="text/css">
	.st0{fill:#FFFFFF;}
</style>
<g>
	<g id="Page-1">
		<g id="XMLID_73_">
			<path id="XMLID_78_" class="st0" d="M23.4,18.2c-0.5,0-0.9-0.4-0.9-0.9s0.4-0.9,0.9-0.9s0.9,0.4,0.9,0.9
				C24.2,17.9,23.9,18.2,23.4,18.2 M19.2,18.2c-0.5,0-0.9-0.4-0.9-0.9s0.4-0.9,0.9-0.9s0.9,0.4,0.9,0.9C20,17.9,19.6,18.2,19.2,18.2
				 M25.4,23.1c1.3-1,2.2-2.4,2.2-4c0-2.9-2.9-5.3-6.3-5.3c-3.6,0-6.3,2.4-6.3,5.3s2.9,5.3,6.3,5.3c0.8,0,1.4-0.1,2.1-0.3
				c0.1,0,0.1,0,0.2,0s0.2,0,0.4,0.1l1.3,0.8h0.1c0.1,0,0.2-0.1,0.2-0.2s0-0.1,0-0.2c0,0-0.2-0.7-0.3-1.1v-0.1
				C25.2,23.3,25.3,23.2,25.4,23.1"/>
			<path id="XMLID_74_" class="st0" d="M16.5,13c-0.6,0-1.1-0.5-1.1-1.1s0.5-1.1,1.1-1.1s1.1,0.5,1.1,1.1S17.1,13,16.5,13 M11.4,13
				c-0.6,0-1.1-0.5-1.1-1.1s0.5-1.1,1.1-1.1s1.1,0.5,1.1,1.1S12,13,11.4,13 M14,7.6c-4.2,0-7.6,2.9-7.6,6.3c0,1.9,1.1,3.6,2.6,4.8
				c0.1,0.1,0.2,0.3,0.2,0.4s0,0.1,0,0.2c-0.1,0.5-0.3,1.2-0.4,1.2c0,0.1,0,0.1,0,0.2S8.9,21,9.1,21c0.1,0,0.1,0,0.2,0l1.6-1
				c0.1,0,0.3,0,0.4,0s0.2,0,0.2,0c0.8,0.2,1.6,0.4,2.5,0.4c0.1,0,0.3,0,0.4,0c-0.2-0.5-0.3-1.1-0.3-1.5c0-3.2,3.1-5.8,6.9-5.8
				c0.1,0,0.3,0,0.4,0C20.9,10,17.7,7.6,14,7.6"/>
		</g>
	</g>
</g>
</svg>
